<svg id="Layer_1" data-name="Layer 1" xmlns="http://www.w3.org/2000/svg" xmlns:xlink="http://www.w3.org/1999/xlink" viewBox="0 0 866.44 114.8"><defs><style>.cls-1{fill:none;}.cls-2{clip-path:url(#clip-path);}.cls-3{fill:#322dc3;}.cls-4,.cls-5{isolation:isolate;}.cls-5{font-size:40px;fill:#fbfbfd;font-family:DrukText-Medium, Druk Text;font-weight:500;}.cls-6{letter-spacing:-0.01em;}.cls-7{letter-spacing:-0.03em;}.cls-8{letter-spacing:-0.02em;}.cls-9{letter-spacing:-0.01em;}.cls-10{letter-spacing:0em;}.cls-11{letter-spacing:0em;}</style><clipPath id="clip-path"><rect class="cls-1" x="-1325.24" y="-1006.3" width="1983.87" height="748.7"/></clipPath></defs><g id="Group_166" data-name="Group 166"><g id="Group_128" data-name="Group 128"><g class="cls-2"><g id="Group_127" data-name="Group 127"><g id="Group_126" data-name="Group 126"><path id="Path_13631" data-name="Path 13631" class="cls-3" d="M11.93-6.75c-.63-.06-1.2.53-1.61,1.19C9-3.5,8.18-1,5.6-.3A4.57,4.57,0,0,1,4-.1C2.14-.26,1-1.77-.39-3.23A1,1,0,0,0-1-3.55a1.23,1.23,0,0,0-1.07.49A2.05,2.05,0,0,0-2.16-1,13.89,13.89,0,0,0,.66,3.21c.68.77,2.09,1.47.72,3C.71,6.94,0,7.67-.65,7.62c-.46,0-.9-.41-1.32-1.35a1.49,1.49,0,0,0-1.1-1,1,1,0,0,0-.43.06c-.91.35-1,1.35-1,2.26a15.58,15.58,0,0,0,.27,2.72c.3,1.61-.28,2.43-1.64,2.7a24.14,24.14,0,0,1-2.81.58c-2.74.22-4.29,1.9-5.18,4.93-.51,1.76-.55,4-2.41,5.13-1.07-3.08-1.19-3.25-2.31-3.46-3.75-.68-6.12-3-8-7.81A2.15,2.15,0,0,1-25.2,12c.91.07,1.76.62,2.65.73l.33,0c5.66.45,10.42-4.7,10.41-11.35a1.85,1.85,0,0,0-.78-1.8,1.59,1.59,0,0,0-.47-.14,1.41,1.41,0,0,0-1.23.68C-14.69.72-15,1.41-15.34,2-16.93,4.74-18,6-19.43,5.85c-.95-.07-2-.76-3.44-2S-25,2-25.63,1.91C-26.45,1.85-26.92,3-28,5.68c-.11.23-.51.31-1,.56A18.23,18.23,0,0,1-30.24,4.9,2,2,0,0,0-31.56,4a1.29,1.29,0,0,0-.75.18c-1.1.6-.9,1.7-.79,2.85.34,3.75,1.29,7,4.11,9.24.92.72,2.24,1.33,2.34,3.2-2.26,1.4-4.58,3-5.89,5.5-.7,1.32-1.3,1.81-1.92,1.76a3.22,3.22,0,0,1-1.74-1.15,12.12,12.12,0,0,0-1.49-1.28,2.09,2.09,0,0,0-1-.43,1.28,1.28,0,0,0-1.12.51,2.6,2.6,0,0,0-.61,2.55c.85,2.12,1.87,3.8,4.35,4.08s4.23,2.38,5.44,4.59c.87,1.59-.68,3.43-1.36,5.08a2.48,2.48,0,0,0-.35,1c.36,4.62-2.49,6-5.47,7.19-2.37.94-4.84,1.58-3.66,5.56.25.82-.35,1.33-.91,1.75-1.29,1-1.43,2.51-1.35,3.95.19,3.68-1.22,5.83-4.26,7a9,9,0,0,0-2.09,1.23c-1.26,1-2.28,2.28-2.26,3.54.09,5.29-3.33,8.78-4.53,13.3-.5,1.9-1.42,3.31-3.22,3.78a2.7,2.7,0,0,1-.75.08c-1.32-.11-1.48-1.72-2.07-2.85s-1.25-1.93-2.26-2a2.06,2.06,0,0,0-.78.09c-1.17.36-1.69,1.67-2.1,2.9-1.74,5.29.51,10.38,5.27,10.91,2.55.29,4,1.71,5.13,3.85.62,1.19,1.18,2.82-1.06,3.08-2.81.33-3.72,2.5-3.87,5.39-.08,1.46-.27,2.93-.37,4.39-.15,2.23.08,3.14,1.19,3.23a6,6,0,0,0,1.63-.22c3.1-.75,5-3.17,6.21-6.43.43-1.19.91-2.12,1.85-2a2.17,2.17,0,0,1,1,.34,2.43,2.43,0,0,0,1,.31,1.82,1.82,0,0,0,.8-.12,5.88,5.88,0,0,1,2.88-.59c2.47.19,4.22,2.4,6.11,5.23-.77-.07-1.28-.13-1.71-.15l-.44,0c-.46,0-1-.09-1.26.5a1.37,1.37,0,0,0,.46,1.83c.86.57,1.76,1.56,2.62,1.63h.22a3.75,3.75,0,0,1,.67,0c1.46.12,2.32,1.22,3.33,2.24,7,7,12.45,15.19,14.3,26.29.54,3.29.33,7.09,1.83,9.78s1.71,5.18,1.85,8.11c.18,3.66-.88,7.34,0,10.95.66,2.85.38,5.8.24,8.75-.48,10.15-3.25,20.05-3.83,30.14-.73,12.46-5.56,23.21-11,33.62-1.08,2.06-2.24,4.06-3.44,6l13.46,1c2.3-4.72,3.83-9.89,6.82-14.13-1.74,4.88-2.91,10.13-6,14.19l3.11.24c.24-.49.46-1,.69-1.48,2-4.19,3.81-8.43,5.47-12.79a107.36,107.36,0,0,0,6.79-25.94c.83-6.89,1.89-13.79,3.14-20.68.31,6,.81,12-1,18C-6.28,220.65-7.1,229-9.13,237a173.74,173.74,0,0,1-5.94,18.93l2.64.2c.74-2,1.44-4.11,2-6.25,1.52-5.27,3.79-10.27,5-15.69.42-2,1.07-3.89,1.5-5.86C.2,209.41,1,190.41-.37,171.39l-.15-2.07c-.07-.84,0-1.87-.85-2.32h-.08c-1.25-.11-1,1.75-2.09,2.09-1.15-1.66-.58-4.62-3.06-5.55-1.08-.39-.69-2.59-.79-4-.46-6.34-.12-12.82-1.62-19-.88-3.62-1.32-7.44-3.94-10.14-.6-.63-.63-2-.93-3h0l-.15,0v-.31c-.42-.79-.87-1.56-1.23-2.39-.89-2,.44-1.82,1.41-1.92v-.17l.08.16h0c0-4.17-2.6-7.2-3.62-11.87,2.73,1.93,3.78,4.54,5.15,6.74l.48.77h0a3.3,3.3,0,0,0,2.46,1.89c-.68-1.65-1.45-3.25-2.24-4.81h0c-2.23-4.33-4.85-8.37-7.42-12.44-.74-1.16-1.46-2.32-2.18-3.5C-26.63,90.5-32.49,81.78-39.7,74.42a11.1,11.1,0,0,1-1.25-1.56l-.17-.41v0a1.08,1.08,0,0,1,0-.44,1.26,1.26,0,0,1,.19-.65,1.25,1.25,0,0,1,1.12-.71.94.94,0,0,1,.53.2,30.87,30.87,0,0,1,2.59,2q.42.38.81.78c6.73,7.34,13.36,14.81,17.32,24.83.12.34.26.86.47.91a5.27,5.27,0,0,1,1,.38l.14.07a5.23,5.23,0,0,1,.84.51c2.92,2.1,3.95,6.52,6.8,8.72a13.18,13.18,0,0,0,2.69,9.42c2.55,3.45,3,7.33,3.7,11.34a4.66,4.66,0,0,0,.78,2.53c1.23-.68.51-1.84.58-2.76.17-3-1.08-6,.67-9.09.53-.9-.27-2.06-.52-3.09-1.07-4.35-2.14-8.7-3.12-13.08a7.62,7.62,0,0,1,0-5.18c3.84,5.52,4.94,12.11,7.35,18C1.66,105.38-1.45,94.4-4.06,83.17c6.9,9,10.61,20.1,14,31.48,1-3.61-1-6.72-.66-10.92,2.71,6,4.18,11.89,3.83,18-.49,8.45.82,16.77-.15,25.21,1.71,3.64-.63,8.31,1.67,11.8q.18-11.31.37-22.63c2.81,5.93,3.8,12.35,4.86,18.71,1.62,9.67,1.44,19.5.82,29.45-.1,1.32-.23,2.62-.37,3.93a3,3,0,0,1,.14,1.32,7.51,7.51,0,0,1-.29,1.33v.05l-.08.33c-.33,1.48-.14,2.29,1.15,2.42h.12c.12-.43.23-.85.38-1.28A30.66,30.66,0,0,1,23,188.94a108,108,0,0,0,1.23-15.25c0-9.59-.07-19.37-2.09-28.72-1.4-6.47-1.51-13.66-4.7-19.13-2.32-4-2.91-8.1-3.53-12.5-.25-1.79-.57-3.58-.7-5.39-.08-1.28-.48-2.74.45-4,1.69.91.7,3.74,2.57,4.18,1.29-1.4-.88-3.38,1-5,1.26,4,2.39,7.74,3.58,11.43.32,1,.57,2.3,1.23,2.83,2.57,2.05,2.92,5.25,3.48,8.45.46,2.65,1,5.29,1.52,7.93,1.79,9.9,4.83,19.51,4.3,30a12.67,12.67,0,0,0,.63,5c.68-3,2.05-5.46,1.71-8.37-.93-7.74-1.46-15.59-2.66-23.25a52.32,52.32,0,0,0-5-16.14,73.59,73.59,0,0,1-5.74-15c-2.14-8.09-4.83-16.1-8.82-23.27Q5.12,71.2-1.18,59.63c-.75-1.4-2.13-2.63-.88-5.43,3.57,4.09,4.82,9.43,7.41,13.67S10.1,77.16,13.5,81c-1.65-7.51-6.7-13.13-7.88-20.87C11.45,67.68,15,76.8,18.82,86.55c0-6-2.76-10.23-4.31-15.47,1.79.5,1.82,2.5,3.06,2.59a1.25,1.25,0,0,0,.47,0c.3-2.27-.84-3.86-1.46-5.66s-1.61-3.17-1.91-4.9c-1-5.8-3.29-10.83-5.71-15.86C5.93,40.89,3,34.49,0,28.11-3,26.38-3.07,26.36-1.85,22.86A10.88,10.88,0,0,0-1,18.09c-.11-1.07-.3-2.38.65-3,2.69-1.8,4-5.13,6.05-7.57,1.61.94,2.56,2.45,4.11,2.93,1.16.36,1.07,1.57.87,2.68-.16.85-.53,1-1,1-.28,0-.59-.12-.88-.17l-.44-.06c-2-.16-2.11,1.41-1.86,3.3,6.21,2,9.6,7.38,12.15,13.75,2.57,1.58,3.36,4.54,4.07,7.56l.69,1.41A10.77,10.77,0,0,1,26,42.94c2.93,6.93,5.76,13.87,7,21.6,1.09,6.58,1.15,6.56,5.27,12.11A108.19,108.19,0,0,0,31.5,40.8c-1.14-2.95-2.86-5.7-2.94-9.18,5.69,6.41,7.3,15.52,10.56,23.6A92.23,92.23,0,0,0,37,42c-2-8.93-6.58-16.23-10.72-23.77a41.37,41.37,0,0,0-5.17-6.84,3.21,3.21,0,0,0-1.91-1.19,1.3,1.3,0,0,0-1,.4c-1.15,1.16-.14,2.27.63,3.2.46.54,1.44.91.49,2.24-2.56-.54-3.09-3.43-4.77-5.12C18.68,8.34,26.2,1,27.31-1.36a2.71,2.71,0,0,0-1.37-.47,6.8,6.8,0,0,0-2.32.38,6.87,6.87,0,0,1-2.29.37,2.46,2.46,0,0,1-1.14-.36A2.82,2.82,0,0,0,19-1.92c-.8-.06-1.23.59-1.61,1.75C16.85,1.39,16.52,3,15.08,4a2.85,2.85,0,0,1-1.7.64c-.77-.06-1.19-.87-1.28-2.46a14.39,14.39,0,0,1,.8-6c.41-1.06.51-2.29-.57-2.82a1.08,1.08,0,0,0-.4-.11m7.13,31.31a.48.48,0,0,1-.38-.29c-.31-.55-.6-1.13-.86-1.62.19-.33.37-.48.53-.47a.33.33,0,0,1,.27.24,5.42,5.42,0,0,1,.68,1.82c0,.22-.1.34-.24.32m9.31,6.72c-1.43-.36-1.86-1.89-2.5-3.15,1.54.27,2.13,1.6,2.5,3.15m-39.95-2.51a1.13,1.13,0,0,1-1-1c-.27-1.11.66-1.58,1.31-2,.48-.32.77-.5,1.07-.47.48,0,.95.58,2.14,2l-2.64,1.27a1.72,1.72,0,0,1-.89.21m-11,9.79a43.24,43.24,0,0,1-7.5-8c2.86-1.38,6.05-.69,7.86-3.94A1.07,1.07,0,0,1-21.21,26a3.09,3.09,0,0,1,1.46.72A18.74,18.74,0,0,1-14,34.16c-.34.23-.68.56-.78.55h0c-1.79-1.62-2.82-2.54-3.59-2.6-1-.08-1.59,1.34-2.9,4.65-.26.65-.3,1.43-1.32,1.81m51.74,6.19c-.07-.27-.2-.77-.3-1.28s.11-.72.33-.71l.13.06A2.6,2.6,0,0,1,30,44c.14.42-.08.7-.89.74m-56.24.74c.52-2.81.76-4,1.52-4,.59,0,1.49.86,3.09,2.3l-.24,0c-2.09-.16-3.14,1-4.37,1.69M-13.93,56c-2-1.35-2.71-3.92-4.16-5.79,1.86,1.47,3.68,3,4.16,5.79m16.79-.12a.4.4,0,0,1-.31-.19A2.79,2.79,0,0,1,2,54.29c0-.19.11-.3.31-.28a1,1,0,0,1,.51.25,4.11,4.11,0,0,1,.37,1.25.34.34,0,0,1-.33.34h0m-8,34.92C-10,82.65-14.63,74.45-19.73,66.64a55.48,55.48,0,0,0-9.5-10.85c-.73-.65-2.44-1.14-1.47-2.76.33-.55.65-.74,1-.71.61,0,1.18,1,1.71,1.36,7.66,5.79,12.87,14.16,17.51,23.08,2.27,4.38,4.7,8.72,5.36,14M-11,61c-1.51-2.06-3.3-2.55-2.78-4.8C-12,56.68-12,58.6-11,61m.16,31.76c-4.63-6.57-8.74-13.25-13.21-19.74h0a137.49,137.49,0,0,0-9.35-12.28c6.51,1.47,21.85,23.55,22.57,32M-38.48,65a.91.91,0,0,1-.33-.1,1.32,1.32,0,0,1,.07-1.45.69.69,0,0,1,.61-.43.71.71,0,0,1,.49.35,1.23,1.23,0,0,1,0,1c-.18.39-.45.7-.84.67M-47.82,77.7a.39.39,0,0,1-.39-.39.4.4,0,0,1,0-.15,2.4,2.4,0,0,1,.64-1.29.54.54,0,0,1,.37-.13c.28,0,.44.34.33.78a4.31,4.31,0,0,1-.68,1.15,1.53,1.53,0,0,1-.3,0M-26.64,104a2.78,2.78,0,0,1-2-1.5c-2-2.93-4.29-5.59-6.1-8.74-2.75-4.73-5.85-9.17-8.79-13.73l.75-1,17.88,24.46a3.3,3.3,0,0,1-1.78.49M-16.2,93.11a15.29,15.29,0,0,1-2.63-3,26.17,26.17,0,0,1-2-3.49l0,0c-.27-.56-.53-1.13-.78-1.72l-.11-.24c-.26-.59-.51-1.17-.75-1.77.44.48.88,1,1.29,1.46l.19.21c.43.49.84,1,1.23,1.52a19.57,19.57,0,0,1,3.58,7M-48,86.34c-.72,0-1.25-.43-1.06-1.68.13-.83.35-1.84,1.21-1.78l.23,0a2.59,2.59,0,0,1,2.18,2.38c-.28,1.35-1.2,1-1.91,1a4.71,4.71,0,0,1-.65,0m-3.72,16.25c-.82-.61-1.2-.74-1.3-1-.78-2.1-3.85-3.37-3-5.48,1.2-2.93,2.58-6.38,6-8.09.82,5.11.75,9.75-1.68,14.58m42.44,6.46c-1-2.37-2.08-4.74-3.06-7.13-.33-.79-.63-1.77.14-2.45a1.07,1.07,0,0,1,.76-.32c.48,0,.86.54,1.15,1.06,1.52,2.85,3.08,5.68,4.43,8.66.67,1.5,1.36,3.31-.36,4.94-2-.73-2.24-3-3.06-4.76h0M-22.41,121c-.83-1.55-1.66-3.09-2.48-4.65l.53-.41,2.72,4.44-.77.62m14.76,82.89c-1.95-6.28,0-12.5,1.11-18.77,1.21,6.28-.86,12.48-1.11,18.77m-6.46,31.93c2.27-8.93,4-17.85,5.49-26.81a102.29,102.29,0,0,1-5.49,26.81"/><path id="Path_13635" data-name="Path 13635" class="cls-3" d="M6.47,17.12l.11.13v-.1l-.11,0"/><path id="Path_13636" data-name="Path 13636" class="cls-3" d="M18.66,30.86l.14.23-.08-.18-.06-.05"/><path id="Path_13637" data-name="Path 13637" class="cls-3" d="M-.06,27.89l.1.21H0Z"/><path id="Path_13638" data-name="Path 13638" class="cls-3" d="M-100.33-237.7l-.44,0a27.71,27.71,0,0,0-3.53,0c-4.38.32-8.72,0-13.07-.11h0l-1.87-.05h-.31c-1.51,0-3-.11-4.52-.22h-.11l-.46,0-.59,0-4.21-.38-.87-.07-.78-.07h-.1a56.81,56.81,0,0,0-6.52-.2h-.68a54.49,54.49,0,0,1-6.39,0h-.14a17.17,17.17,0,0,1-2-.26l-.3-.05-.06,0-.14,0a12.32,12.32,0,0,1-2-.57c-.39-.15-.78-.28-1.18-.39l-.26-.08a18,18,0,0,0-3.34-.58h-.08a33.82,33.82,0,0,0-3.63,0c-1.16,0-2.33.11-3.52.14a27.3,27.3,0,0,1-3,0l-.28,0c-1.06-.12-2.12-.21-3.18-.29-9.75-.76-19.55-.09-29.35.48-11.68.69-23.07,4.35-34.6,6.54-4.31.81-8.63,1.74-12.94,2.76l-2.38.59c-3.11.76-6.24,1.56-9.33,2.41-16.5,4.57-32.89,9.49-49,15.89-1.77.71-3.52,1.47-5.26,2.26-3.44,1.55-6.85,3.19-10.31,4.66l-5.56,2.36c-3,1.25-5.93,2.52-8.87,3.84-2.38,1.08-4.76,2.19-7.11,3.36-1.22.6-2.42,1.23-3.61,1.87s-2.1,1.15-3.15,1.74c-.59.35-1.19.68-1.77,1-1.58.94-3.14,1.9-4.68,2.93-3.8,2.55-7.71,4.79-11.63,7.05a128.81,128.81,0,0,0-14.2,9.12q-5.18,4-10.28,8c-1,.83-2.06,1.65-3.09,2.49-1.55,1.26-3.09,2.53-4.62,3.83-2.17,1.85-4.34,3.74-6.47,5.68a21.51,21.51,0,0,0-2.72,3.16c-.65.89-1.3,1.78-2,2.62a12.49,12.49,0,0,1-3.34,3.06,25.53,25.53,0,0,0-5.79,5c-1.07,1.17-2.07,2.37-3.05,3.6-.51.64-1,1.29-1.55,2-.8,1.05-1.63,2.09-2.49,3.09a39.49,39.49,0,0,1-4.48,4.48c-.21.18-.44.35-.66.52-.38.31-.78.61-1.19.89s-.7.51-1.05.74a19.09,19.09,0,0,0-4.1,3.72c-2,2.41-3.79,5.25-5.65,7.86A302.91,302.91,0,0,0-468-71.88c-4.61,9.22-10.07,17.92-13.37,27.94-2,6.17-3.75,12.49-6,18.55-.22.61-.45,1.21-.68,1.81l-.21.53c-.76,1.94-1.51,3.89-2.22,5.84-.34.94-.65,1.88-1,2.83q-2.19,6.29-3.95,12.68c-.66,2.38-1.25,4.76-1.82,7.16q-1.72,7.38-2.87,14.93c-.08.55-.18,1.1-.27,1.65a9.55,9.55,0,0,1-.33,1.5c-.31,1.08-.73,2.16-1.09,3.22l0,.09c-2.11,6.26-4.07,12.52-3.62,19.26,0,.33,0,.65.06,1v.12c0,.18,0,.36,0,.54a12.11,12.11,0,0,1-.35,3.84c-.82,3.15.12,5.48,2,7.77a31.89,31.89,0,0,1,3.76-11.3,8,8,0,0,0,.43-3.22A149.19,149.19,0,0,1-495,16.19c3-11.93,6.5-23.73,9.85-35.56,5.58-19.63,13.75-37.79,23.39-55.19q4-7.27,8.23-14.45c3.91-6.66,7.91-13.23,12.14-19.63,2.1-3.18,4.27-6.32,6.55-9.34,1.45-1.91,2.95-3.76,4.52-5.55l0,0,.59-.69c1.42-1.57,2.89-3.08,4.44-4.51l.05-.06.12-.11.06,0,0,0c1-1,2-2.51,3.46-2.45h.08l.21,0h.06l.24,0c.45,1.19-.15,1.88-.51,2.71-2.56,5.79-7.1,9.61-10.65,14.42-1,1.29-2.62,2.79-2.36,4.05.7,3.5-1.49,5.41-2.87,7.5-4,6.1-8.39,11.9-12.58,17.84-5,7.11-9.88,14.52-13.45,22.63-5.93,13.47-11.87,27-17,40.84A172.37,172.37,0,0,0-490.2,17c-1.19,9.34-2.47,18.63-5.45,27.58a14.41,14.41,0,0,0-.59,2.68c-.1.79.22,1.5.91,1.58h0a1.45,1.45,0,0,0,1.17-.72A35.41,35.41,0,0,0-492.7,44c2.66-8.84,3.69-18,4.95-27.12a205,205,0,0,1,5.53-26.4c1.31-4.75,4.41-7.94,5.87-12.32,1.79-5.33,4.88-10.13,5.39-16a2,2,0,0,1,.8-1.28c3.1-2.13,3.25-6.29,5-9.35a3.1,3.1,0,0,0,.19-2.12c-.48-2.32.31-5.63,1.69-5.69,2.7-.09,2.94-2.52,3.8-4.23a79.32,79.32,0,0,1,3.91-7.06c.74-1.16,1.94-2.51,1.58-3.91s-.13-1.54,1-1.93c1.65-.55,3.49-1.24,3.17-4.13-.06-.5.72-1.17,1.11-1.77,6.67-10.23,12.93-20.81,20.11-30.6.83-1.14,1.39-2.49.12-3.25-2-1.22-.61-2.53.05-3.34,2.21-2.72,4.63-5.22,6.94-7.82,4.65-5.21,8.69-11.23,14.06-15.47,10.14-8,19.95-16.59,30.39-24.06a153.91,153.91,0,0,1,18.59-11.32,38.22,38.22,0,0,1-8.94,7.93c-8,5.6-15.83,11.43-22.88,18.72-8.32,8.58-17.65,15.76-25.32,25.27a30.79,30.79,0,0,0-5.09,9c2.74-2.87,5.08-6.15,7.7-9.09,10.72-12,22.65-22.33,34.32-33,3.27-3,7.1-5.11,10.68-7.64a3.21,3.21,0,0,1,1.64-.72.51.51,0,0,1,.48.37c.43,1.19.89,1.64,1.35,1.67.81.06,1.6-1.15,2.19-1.74,7.65-7.78,17.25-12,25-19.68,3.54-3.49,9.05-3.52,11.49-9.07l.43-.2c3.79-2,7.53-4.12,11.4-5.92,8.34-3.87,16.86-6.89,25.42-9.91,10.85-3.81,21.57-8.49,32.84-9.6,6.36-.62,12.45-2.56,18.57-4.38a139.28,139.28,0,0,1,24.81-5.3c7.73-.84,15.48-1.76,23.17-3.24,1.33-.26,2.67-.49,4-.71.41-.07.79-.15,1.2-.21q7.59-1.23,15.2-1.81c2.92-.22,5.86-.37,8.78-.46,1.66-.06,3.33-.09,5-.11,2,0,4,0,6,.05l.43,0c3.42.08,6.83.27,10.22.54h.11l1.09.08,1.13.11c12.46,1.09,24.77,3.17,37.08,5.36,6.45,1.15,12.92,2.18,19.1,4.56.89.34,2,.27,2.61,1.52a3.12,3.12,0,0,1-2.19.6c-.47,0-.92-.13-1.35-.17-9.63-.81-19.15-2.64-28.8-3.4-2.57-.19-5.16-.32-7.76-.32h-.12c-.43,0-.84-.22-1.28-.26-6.17-.54-12.33-1.33-18.51-1.82-3.36-.26-6.73-.43-10.12-.41a10.05,10.05,0,0,0-7,3c.87.14,1.74.28,2.58.34a7.05,7.05,0,0,0,4.43-.88,3.7,3.7,0,0,1,2.25-.49,8.79,8.79,0,0,1,1.43.27c10,2.66,20.54,2.18,30.61,4.63a42,42,0,0,0,6.6,1c1.23.09,2.46.17,3.71.23s2.46.13,3.69.23a43.93,43.93,0,0,1,6,.83c4.45,1,9,1.69,13.34,2.93,6.23,1.75,12.78,1.29,19,3.08,11.2,3.24,22.44,6.34,33.65,9.53,9.25,2.64,18.42,5.5,27,10.4,1,.55,2,.88,3,1.35s2,1,3,1.53,1.94,1.1,2.93,1.64c.84.45,1.69.88,2.53,1.32s2,1.11,3,1.54a6.4,6.4,0,0,0,1.54.54c.42,0,.59-.24,1-.86s.55-.92.91-.89a2.86,2.86,0,0,1,.64.16,14.48,14.48,0,0,1,2.24.78c10.61,5.08,21.36,9.78,31.55,15.94,4.58,2.77,9.43,4.95,14.16,7.4l.43-1c-6.4-3.72-13-7.08-19.1-11.79a2.23,2.23,0,0,1,1.45-.46,4.86,4.86,0,0,1,1.56.6q9.51,4.33,19,8.8c1.57.75,3.37,1.37,4.51,2.7,5,5.87,11.81,8.31,18,11.86,2.57,1.47,5.5,2.4,6.84,5.78a2.81,2.81,0,0,0-1.74-1.17,2.36,2.36,0,0,0-1.57.58,8.87,8.87,0,0,0,1.71,1.47c6.13,2.65,11.49,6.94,17.35,10.16,6.16,3.37,11.86,7.68,17.65,11.77.76.54,1.46,1.48,2.35,1.54a1.3,1.3,0,0,0,.55-.06,4.11,4.11,0,0,1,1.56-.19c1.71.13,3.06,1.39,4.45,2.4,7.66,5.56,15.69,10.44,22.78,17,2.86,2.65,6.38,4.18,9.52,6.33,1.68,1.14,3.56,2.91,5.91,3.09a4.71,4.71,0,0,0,1.45-.1c-30.34-22.88-61.75-43.66-93.53-63.75a.74.74,0,0,1,.76-.41,3.9,3.9,0,0,1,.59.14,3.39,3.39,0,0,0,.55.13c.33,0,.56-.15.55-.91,0-1-.31-1.79.16-1.76a2.26,2.26,0,0,1,.86.4c3.42,2.17,7.2,3.33,10.72,5.21a14.12,14.12,0,0,1,4.69,3.41c2.81,3.46,6.39,5.51,10.08,7.46,2.53,1.33,5.12,2.58,7.56,4.13a210.91,210.91,0,0,1,21.75,15.34A85.51,85.51,0,0,0,156-117c7.25,4.39,14.27,9.2,21.25,14.11,5.12,3.62,10.07,7.59,15.07,11.44,5.92,4.53,12.36,8.13,17.83,13.4A104.47,104.47,0,0,0,220.42-69c2.6,1.91,5.54,3.29,8,5.44,8.48,7.46,18,13.16,26.4,20.75,4.79,4.33,9.83,8.31,14.69,12.53.91-.29,1.81-.55,2.72-.85a60.92,60.92,0,0,1,6.8-1.71c-.64-.51-1.3-1-2-1.49-5.8-4.19-11.72-8.22-17.29-12.79q-3.75-3-7.19-6.46l-.46-.44A6.79,6.79,0,0,0,248.3-56h-.09a4.78,4.78,0,0,0-1.51.12l-.13,0h-.12a2.79,2.79,0,0,1-.64.07h-.06a2.48,2.48,0,0,1-1.86-1.64,13.48,13.48,0,0,0-1-1.74h0a20.05,20.05,0,0,0-6.53-5.76.67.67,0,0,0-.18-.07h-.06c-.21,0-.38.18-.47.51.27,1.47,2.11,1.49,2.2,3.17-4.12-1.43-7.26-4.67-10.67-7.42a25.68,25.68,0,0,0-4.62-3.09l-.45-.24c-2.66-1.46-4.73-4-7.1-5.93-.45-.36-1-.66-1-1.6v-.34c0-.64,0-1.1,0-1.43l0-.35a1,1,0,0,0-.48-.85l-3.11-2.13c-.83-.56-1.65-1.14-2.44-1.74-1.14-.87-2.26-1.74-3.39-2.63-2.66-2.1-5.3-4.24-8-6.31-.82-.65-1.65-1.28-2.5-1.9-1.93-1.44-3.88-2.83-5.89-4.11-2.31-1.48-4.59-3-6.84-4.6-1.69-1.18-3.38-2.38-5-3.59-5.85-4.27-11.62-8.68-17.55-12.82-.43-.32-.87-.63-1.31-.94-2.92-2-5.79-4.44-9-5.5a40.59,40.59,0,0,1-9.52-4.82c-2.36-1.56-4.65-3.24-6.94-4.9-1-.76-2.09-1.53-3.15-2.25-4.38-3-8.76-6.05-13.2-8.92-1.75-1.13-3.51-2.24-5.28-3.3-1-.61-2-1.18-3-1.78q-5.87-3.44-11.8-6.72c-4.81-2.64-9.65-5.21-14.5-7.77q-3.82-2-7.63-4c-5.93-3.16-11.85-6.34-17.81-9.43-1.07-.56-2.15-1.13-3.22-1.67-.87-.45-1.75-.88-2.61-1.32l-2.27-1.14c-4.23-2.11-8.48-4.16-12.78-6.1q-2.3-1-4.58-2.15l-2.47-1.22c-4.89-2.45-9.7-5.08-14.52-7.72-1-.55-2-1.11-3-1.66L6.8-207.5l-3.31-1.75L3-209.51A23.66,23.66,0,0,0-.27-211a11.23,11.23,0,0,0-2-.53l-.09,0a64.17,64.17,0,0,1-11.8-3.14l-2.45-.89-1.92-.73c-1.22-.47-2.44-.91-3.66-1.37l-2.22-.82q-4.75-1.74-9.55-3.35-6.27-2.12-12.61-4.12l-.54-.17c-4-1.26-8.15-1.14-12.18-1.81-.59-.09-1.17-.2-1.74-.34h0l-6-1.38-2.41-.54c-4.59-1.06-9.17-2.13-13.72-3.31l-1.26-.32c-2.7-.72-5.4-1.48-8.08-2.32l-.13,0c-.83-.26-1.68-.48-2.53-.69a31,31,0,0,0-5.16-.83M31-184.1a30.76,30.76,0,0,1-8.12-3.1c-8.93-5-18.55-8.16-27.93-12a212.32,212.32,0,0,0-22-7.23,23,23,0,0,1-4.87-1.86c-11.59-6.31-24-9.69-36.63-12.45-1.89-.42-4.09-.36-4.94-3.07a1.73,1.73,0,0,1,1.33-.53,13.17,13.17,0,0,1,1.49.41q4.19.84,8.37,1.71c3.13.64,6.28,1.31,9.42,2,1.57.33,3.16.65,4.74,1a21.88,21.88,0,0,1,4.36,1.8c.53.23,1,1,1.47,1h.11a6.43,6.43,0,0,1,.76-.17h.19l.55-.06h.18l.44,0H-40l.18,0a3.86,3.86,0,0,1,.49.09l.13,0c.17,0,.35.09.51.15l.08,0a5.2,5.2,0,0,1,.55.21l0,0c2,.93,3.74,2.7,5.76,3.59l0,0a6.4,6.4,0,0,0,1.93.75,1.51,1.51,0,0,0,.52,0l.48-.23h0a2.48,2.48,0,0,0,.49-.48,1.28,1.28,0,0,1,1-.6.91.91,0,0,1,.61.4,9.36,9.36,0,0,0,1.07,1.2l.13.12c3.46,3.25,8.25,3.26,12.11,5.55a3.3,3.3,0,0,0,1.3.45,1.53,1.53,0,0,0,.52-.05,6.88,6.88,0,0,1,2.47-.27c2.88.23,5.11,2.34,7.6,4a44.86,44.86,0,0,0,10.24,5.08c4.68,1.7,9,4.3,13.75,6-1.19-2.8-4.06-2.81-6-5.23a41.29,41.29,0,0,1,9.38,3.4c8.05,4.11,16.37,7.63,24.37,11.86,5.88,3.11,12.43,4.69,17.65,9.38.61.56,1.24,1,1.17,2-8.4-3.71-16.8-7.29-25.08-11.24-5.13-2.45-10.07-5.44-15.07-8.25a6.07,6.07,0,0,0-2.41-1.13,2.41,2.41,0,0,0-1.07.17c1.48,2.26,3.85,3,6,5.33m-263.7-45.6c1.05-1.66,2.69-1.68,4.16-2,3.4-.71,6.82-1.24,10.24-1.81a1.78,1.78,0,0,1,.46,0c.46,0,.9.33,1.27,1.37-5.45,1-10.73,2.35-16.13,2.44m-11.35,2.21a6,6,0,0,1-.84-.09l.46-.29a5.84,5.84,0,0,1,.53-.33,11.75,11.75,0,0,1,2.78-1.24,15.4,15.4,0,0,1,5.61-.47q.5,0,1,.09c.48.06,1,.12,1.45.2-.85.29-1.7.57-2.56.84a22.18,22.18,0,0,1-8.43,1.29m-10.61,3a8.09,8.09,0,0,1,3.19-2.51,8.75,8.75,0,0,1,1-.35l.14,0a9.53,9.53,0,0,1,1-.2l.15,0a10.52,10.52,0,0,1,1.12-.07h.11c.4,0,.81,0,1.23,0h.25l1.15.13c-1.89,1.84-4.29,1.51-6.43,2.28-1,.35-2.1-.05-3,.74m-3.38.47a1.6,1.6,0,0,1-.67-.18,2.14,2.14,0,0,1,1.69-.83,3.81,3.81,0,0,1,1.78.92,1.25,1.25,0,0,0-.59-.19,3.89,3.89,0,0,0-1.07.15,4,4,0,0,1-1.14.14m3,0h0m-10.8,1.39a4.21,4.21,0,0,0,1.8-.49,4.47,4.47,0,0,1,2-.46,2.78,2.78,0,0,1,.77.17,4.46,4.46,0,0,1-3.26,1.29,4.54,4.54,0,0,1-2-.74h0a1.66,1.66,0,0,0,.69.23m-21.35,7.92c1-2.62,2.82-3,4.53-3.53,5.37-1.56,10.72-3.08,16.09-4.61.05.95-.16,1.85-1.08,2.12-6.36,1.87-12.53,4.81-19.54,6M42.69-178.49c-3-.22-4.42-2.45-6.53-3a6.13,6.13,0,0,1,1.42-.07c1.83.14,3.41,1.2,5.15,3.06h0m28.94,10.54-2.86-1a5.19,5.19,0,0,1,.56,0,4.55,4.55,0,0,1,2.3,1m-415.18-22.82a12.87,12.87,0,0,1-2.2-.47c4.87-3.3,9.3-6.12,14.77-7.18-1.85,3.14-1.85,3.14-6.83,5.59-3.36,1.65-4.4,2.17-5.74,2.06m-36.72,22.85c1.59-4.77,16.13-13.71,26.14-16.29-8.07,6.64-16.8,11.61-26.14,16.29M99.28-146.47a4.73,4.73,0,0,0,.65,0c.29,0,.56,0,.83,0a2.61,2.61,0,0,1,2,1,1.7,1.7,0,0,1-.89.18,3,3,0,0,1-1.38-.61,3.21,3.21,0,0,0-1.2-.59m-.27,0h0m-484.32-18.95c-.32,0-.41-.48-.12-.74a2.26,2.26,0,0,1,1.16-.66h.06c.28,0,.32.44,0,1a3.53,3.53,0,0,1-1.08.45h-.05m-7.25,10.14c.61-1.32,1.37-2.3,2-2.25a.59.59,0,0,1,.38.18c.88.91-.59,1.16-1,1.69-.16.2-.56.18-1.33.38m-6.56,6.54c.75-2.34.75-2.34,3.55-4.06-.75,2.16-2.2,2.84-3.55,4.06"/><path id="Path_13653" data-name="Path 13653" class="cls-3" d="M66.58,103.59l-.06,0h0l0,0,.09.06Z"/><path id="Path_13655" data-name="Path 13655" class="cls-3" d="M66.59,103.72c0,.5.1,1,.14,1.49l.55-.88a3.13,3.13,0,0,0-.69-.62"/><path id="Path_13660" data-name="Path 13660" class="cls-3" d="M64-9.66a3.89,3.89,0,0,0-3.44,2.11A11.43,11.43,0,0,0,59.42-4.5a2.66,2.66,0,0,1-3,2.13h-.13c-1.44-.12-1.39-1.55-1.17-2.81.54-3.08-1.54-3.67-3.16-4.47a2,2,0,0,0-.8-.23c-1.36-.11-2.23,1.4-3.08,2.61S46.64-4.76,45.8-3.63c-.71.95-1.35,1.4-1.91,1.36S42.76-3,42.38-4.21s-.47-2.47-.81-3.66a1.29,1.29,0,0,0-1.17-1,1.93,1.93,0,0,0-.34,0,1.34,1.34,0,0,0-1,1.6h0c.23,2.09-1.43,4.08-.19,6.32C39.53.31,40,2.3,38.19,3.4a3.24,3.24,0,0,1-2,.55,3.61,3.61,0,0,1-2.33-1.26C33,1.72,32.3.47,31.48-.58a.86.86,0,0,0-.6-.36.75.75,0,0,0-.65.31A2.32,2.32,0,0,0,29.69.78c.23,3.14,3,6.33,5.64,6.54a3,3,0,0,0,1.77-.4c3.73-2.23,8-2.28,11.54-5.18A5.36,5.36,0,0,1,52.31.22c1.59.12,3,1.45,4.25,3.83A18.47,18.47,0,0,0,58.2,6.66c5,6.3,8.06,13.91,10.76,21.8.92,2.69,1.93,5.33,2.9,8C71,22.33,63.81,12,57.61,1.1a13.68,13.68,0,0,1,8.57-2.66,10.78,10.78,0,0,1,7,3.51A11.73,11.73,0,0,0,79.86,5.3l.34,0c3.13.24,7.4-3.34,8.18-6.78A2.55,2.55,0,0,0,88-4a1.33,1.33,0,0,0-.83-.4,1.74,1.74,0,0,0-1.31.6,20.12,20.12,0,0,1-1.49,1.43C82.59-1,81.1-.4,79.74-.5c-1.57-.12-3-1.21-4.6-3.3a7.92,7.92,0,0,0-.64-.77c-.85-.94-1.61-1.92-2.53-2-.66-.06-1.42.36-2.37,1.62a2.12,2.12,0,0,1-1.85,1,2.82,2.82,0,0,1-2.23-2.65c-.2-1.23.19-2.77-1.25-3l-.28,0"/><path id="Path_13676" data-name="Path 13676" class="cls-3" d="M142.78,11.86c1.2,4.79.05,8.56-.5,12.43a12.35,12.35,0,0,0,.05,4.07c2.77-2.19,5.61-4.27,8.48-6.26-.54-1.65-1.6-3.25-1.2-5.27a1.22,1.22,0,0,0-1-1.24.71.71,0,0,0-.25,0,2.27,2.27,0,0,1-.93.14c-1.72-.14-2.26-2.68-4.61-3.89"/><path id="Path_13697" data-name="Path 13697" class="cls-3" d="M37.77,9.06a1.77,1.77,0,0,0-1.45.68,2.21,2.21,0,0,0-.3,2.52c.38.76,1,1.35,1.44,2.08a50.23,50.23,0,0,1,7.25,17.25,167.2,167.2,0,0,1,1.94,16.69c.14,1.58,0,3.95,1.49,4.09,2.28.21,2.56,2.3,3.47,3.74a95.47,95.47,0,0,1,12.27,30.6c.27,1.23,0,3,1.68,3.2a55.93,55.93,0,0,0-5.9-22.49C57.43,62.92,55,58.54,52.8,54c-1.69-3.4-3.74-6.66-4.19-10.74-.68-6.33-2-12.48-3.08-18.69a44.36,44.36,0,0,0-4.35-12.44A6.6,6.6,0,0,0,38.5,9.29a1.84,1.84,0,0,0-.73-.23"/><path id="Path_13698" data-name="Path 13698" class="cls-3" d="M65.56,89.91V90l.12-.08h0Z"/><path id="Path_13703" data-name="Path 13703" class="cls-3" d="M178.64-4a4.31,4.31,0,0,0-2.36.84C172-.67,169.4,3.31,168.15,8.68a14.32,14.32,0,0,0-.33,2.26l2.08-1.29c.07-.31.14-.6.22-.9A19.52,19.52,0,0,1,175.28.17a3.55,3.55,0,0,1,3-1.17A11,11,0,0,1,180-.68a11,11,0,0,0,1.79.33h.08c-1.26-2.48-2.11-3.6-3.24-3.69"/><path id="Path_13709" data-name="Path 13709" class="cls-3" d="M128.51,5.72a3.07,3.07,0,0,0-2.23.81c-3.39,2.92-3.87,7.1-3.68,11.38.16,3.52,3.17,7.19,6.24,7.94l.29,0c3,.24,5.1-1.36,7.05-4.58,1.73-2.86,2.14-4.64-.45-6.53-.42-.31-.48-1.28-.67-1.95-.84-2.89-3.29-4.05-4.87-6.16a2.3,2.3,0,0,0-1.68-.93M129,18.45c-1.29-.11-1.77-1.27-1.91-2.69-.14-1.58-.44-3.3.65-4.71a1.68,1.68,0,0,1,1.28-.33h0c.57,0,.67.67.7,1.2.11,2.13.18,4.27.27,6.42a3.31,3.31,0,0,1-1,.11"/><path id="Path_13716" data-name="Path 13716" class="cls-3" d="M87.84-21.17a9.25,9.25,0,0,0-4.36,2.93c-1.6,1.56-1.16,3.81-.9,5.7a1.85,1.85,0,0,0,1.88,1.72,5.06,5.06,0,0,0,1.16-.07A5.31,5.31,0,0,1,87-11a5.15,5.15,0,0,1,2.61,1A7.68,7.68,0,0,0,93.25-8.5a5.41,5.41,0,0,0,3.48-1A2,2,0,0,1,98-9.95c.83.06,1.18,1.18,1.41,2.62.38,2.44-.7,4.21-1.5,6.21-1.8,4.48-.92,7.37,2.78,9.35a8.38,8.38,0,0,0,3.1,1,3.6,3.6,0,0,1,3.46,2.19c.25.57.61,1.1,1.12,1.14a1.06,1.06,0,0,0,.72-.27,2.73,2.73,0,0,0,1.14-2.84c-.53-2-1.19-4-1.77-5.84a1.51,1.51,0,0,0-.37-.07c-1.21-.1-1.85,1.13-2.76,1.51a4.14,4.14,0,0,1-1.77.31,3.47,3.47,0,0,1-2.89-2.5C99.76.72,101.22,0,102.44-.9a16.57,16.57,0,0,0,1.7-1.85c-2.79-1.17-2.81-4-3.38-6.6-.46-2.06-1-3-2-3.09a4.94,4.94,0,0,0-2.39.72,6.25,6.25,0,0,1-2.95.87,2.26,2.26,0,0,1-1.49-.73c-1.79-1.9-4.17-2-6.19-2.87.06-2.58,2.53-3.82,2.08-6.72"/><path id="Path_13730" data-name="Path 13730" class="cls-3" d="M39.41,108.62c-.52,0-1.08.41-1.66,1.17-1.18,1.55-.57,7.45.89,8.27l.45-.1a2.38,2.38,0,0,1,1-.2c1.2.1,1.42,1.6,1.71,2.79.78,3.31,1.59,6.64,2.07,10,.37,2.7.59,5.41.74,8.13a10.08,10.08,0,0,1,2.16-1.86c0-8.75-3.16-16.79-5.33-25a15,15,0,0,0-.78-2c-.4-.87-.82-1.27-1.27-1.3"/><path id="Path_13745" data-name="Path 13745" class="cls-3" d="M123.11,40.6c-2.23-.18-2.33,2.75-2.59,4.71-.14,1.06-.32,2.11-.49,3.15,1.56-1.29,3.11-2.59,4.64-3.92.16-1.71.38-3.57-1.2-3.9a2.2,2.2,0,0,0-.36,0"/><path id="Path_13748" data-name="Path 13748" class="cls-3" d="M42.53,45.39l0,.18.13-.09Z"/><path id="Path_13749" data-name="Path 13749" class="cls-3" d="M26.77,8a1.55,1.55,0,0,0-1.46.78,2.72,2.72,0,0,0-.17,3.46c.31.41.67.74,1,1.13,5.55,6.82,9,15.18,12.68,23.45,1.26,2.83.87,6.77,3.72,8.58a9.7,9.7,0,0,0,.12-2C41.17,31.87,36.43,22,31.57,12.3a8.69,8.69,0,0,0-3.7-3.93A3,3,0,0,0,26.77,8"/><path id="Path_13751" data-name="Path 13751" class="cls-3" d="M117,33.44c-1-.07-1.69.92-2.12,2a6.25,6.25,0,0,0-.42,2.67,118.07,118.07,0,0,1-.87,15.72Q115.3,52.37,117,51a102.06,102.06,0,0,0,1.29-14.6c0-1.13.27-2.38-.78-2.8a2,2,0,0,0-.48-.11"/><path id="Path_13787" data-name="Path 13787" class="cls-3" d="M100.54,11.77a1.75,1.75,0,0,0-.56.06c-1.37.39-1.66,1.58-1.4,3a8.74,8.74,0,0,0,.24,1c3.75,10.59,2.79,22.42,5.62,33.31,1.56-4.31,1.32-8.85.4-13.26a49.9,49.9,0,0,1-1-10.76A38.93,38.93,0,0,0,102,13.47c-.29-.94-.7-1.65-1.44-1.7"/><path id="Path_13793" data-name="Path 13793" class="cls-3" d="M46.89,12.32c-.78,0-1.1.59-1.31,1.33a6.09,6.09,0,0,0,.21,3.22,188.57,188.57,0,0,1,4.93,26.34c.08.81.23,1.81,1,1.87a1.22,1.22,0,0,0,.27,0c1-.18,1-1.28.91-2.21-.67-7.06-1.25-14.14-2.12-21.16a24.07,24.07,0,0,0-2.51-8.11,2,2,0,0,0-1.38-1.27"/><path id="Path_13801" data-name="Path 13801" class="cls-3" d="M68.1,79.64c-.79,2.12-.31,4.08.26,6.14A99.65,99.65,0,0,1,71,98.58c.51-.73,1-1.45,1.57-2.17-.8-5.79-1.6-11.76-4.51-16.77"/><path id="Path_13802" data-name="Path 13802" class="cls-3" d="M68.17,79.41,68,79.5l.07.14Z"/><path id="Path_13804" data-name="Path 13804" class="cls-3" d="M6.57,17.25c-1.7.25-2.94.87-1.56,3.06A8.46,8.46,0,0,0,6.79,22c7.34,6.16,12.67,14.25,16.55,23.73.92,2.27,1.87,4.53,2.81,6.79.21-4.71-2-8.37-2.67-12.61l-.7-1.41c-1.61-2.3-3.55-4.34-4.1-7.47A66.35,66.35,0,0,1,6.57,17.25"/><path id="Path_13805" data-name="Path 13805" class="cls-3" d="M18.66,30.86h0l0,.13.1.1Z"/><path id="Path_13806" data-name="Path 13806" class="cls-3" d="M6.47,17.12h0l.1.13h0Z"/><path id="Path_13832" data-name="Path 13832" class="cls-3" d="M94.28,12.29h-.2c-1.53,0-1.74,1.21-1.53,2.67,1.12,8.07,3.79,15.65,4.7,24a5.48,5.48,0,0,0,.65-1.56,142.32,142.32,0,0,0-1.14-18.91c-.17-1.42-.5-2.82-.8-4.22-.22-1.06-.74-1.88-1.68-2"/><path id="Path_13835" data-name="Path 13835" class="cls-3" d="M109.73,23.09a4.57,4.57,0,0,0-2,5.53c1,3,.59,6.07.62,9.13,0,3.91.1,7.81.16,11.71,3.11-7.24,3.38-22.24,1.23-26.37"/><path id="Path_13850" data-name="Path 13850" class="cls-3" d="M55.26,18.86A2.62,2.62,0,0,0,54.34,22c1,3.08.95,6.41,1.39,9.62.35,2.68.37,5.42.61,8.13,0,.65.24,1.38.93,1.43h.16c.79-.06,1-.83,1.13-1.52a50,50,0,0,0-.71-15.1c-.4-2.05-.68-4.28-2.59-5.74"/><path id="Path_13853" data-name="Path 13853" class="cls-3" d="M85.78,10.28a1.22,1.22,0,0,0-.86.28,1.86,1.86,0,0,0-.65,2.35C85,14.69,86,16.22,86.81,18c1.76,4,3.38,8.13,5.32,12.09.16-6.16-1.46-11.66-3.66-16.94a9.45,9.45,0,0,0-1.83-2.38,1.31,1.31,0,0,0-.86-.47"/><path id="Path_13861" data-name="Path 13861" class="cls-3" d="M115.08-9.8a.44.44,0,0,0-.33.11c-1.16,4.39-.51,6.16,2.81,7.37a2.51,2.51,0,0,0,.6.1l.35,0,.37,0a1.45,1.45,0,0,1,1.27.7c1.78,3.11,4.4,3.54,7.09,3.75l.78.06.76.06a18.51,18.51,0,0,1,2.24.27A9.72,9.72,0,0,0,127.5.33c-3-.95-5.21-2.47-3.9-7.13-1.14.17-1.5.11-1.74.28-2.14,1.43-3.35,2.22-4.16,2.16-1-.08-1.41-1.6-2.28-5.07-.06-.25-.19-.37-.34-.38"/><path id="Path_13864" data-name="Path 13864" class="cls-3" d="M29,80.76a1.09,1.09,0,0,0-.64.16,1.74,1.74,0,0,0-.67,1.87A14.24,14.24,0,0,0,28,84.94c1.7,6.9,4.66,13.19,6.71,19.93a.75.75,0,0,0,.68.59,1.51,1.51,0,0,0,.59-.11c1-3.12-1.36-5.2-1.73-7.93-.69-5.36-3.64-9.8-4.31-15.21-.07-.61-.31-1.4-.92-1.45"/><path id="Path_13893" data-name="Path 13893" class="cls-3" d="M107.81,57.42c-.13.66-.27,1.3-.4,1.95l.37-.34c0-.53,0-1.06,0-1.61"/><path id="Path_13935" data-name="Path 13935" class="cls-3" d="M-.06,27.89l.1.21,0-.18Z"/><path id="Path_13936" data-name="Path 13936" class="cls-3" d="M1.61,25.61c-.94-.07-1.37.88-1.54,2.31,1.71.34,2.17,2.18,3,3.55a34.62,34.62,0,0,0,6.12,7.91c-1.68-4-3.31-8-5-11.91A3.7,3.7,0,0,0,2.8,26.09a2.71,2.71,0,0,0-1.18-.48"/><path id="Path_13992" data-name="Path 13992" class="cls-3" d="M80.41,12.68c1.46,5.74,2.63,11.55,4.5,17.1-.76-6-.8-12.28-4.5-17.1"/><path id="Path_14003" data-name="Path 14003" class="cls-3" d="M118.89,5.4c-.47,0-.93-.05-1.39-.07a1.66,1.66,0,0,0-1.87,1.4,1.61,1.61,0,0,0,0,.49,1,1,0,0,0,.92,1.08,1.65,1.65,0,0,0,.84-.19,3.06,3.06,0,0,1,1.39-.36c.92.08.86,1.23.53,2.72a2.16,2.16,0,0,0,.79,2.46c1-1.78,3-2.84,2.16-5.24-.63-1.81-2-2.18-3.38-2.29"/><path id="Path_14013" data-name="Path 14013" class="cls-3" d="M103.69,54.67a45.9,45.9,0,0,0-1.78,10.46c.59-.61,1.17-1.22,1.75-1.85a26.46,26.46,0,0,0,0-8.61"/><path id="Path_14017" data-name="Path 14017" class="cls-3" d="M72.15,9c.3,5.67,3.26,9.91,5.13,14.74-.35-5.63-3-10.06-5.13-14.74"/><path id="Path_14018" data-name="Path 14018" class="cls-3" d="M61.82,28.78c-2.24,4.42-.55,7.9.22,11.4,1-3.68,2-7.38-.22-11.4"/><path id="Path_14034" data-name="Path 14034" class="cls-3" d="M1.52,21.41c2.61,2.91,4.65,6.52,8.05,8.3-2-3.67-3.67-7.74-8-8.3"/><path id="Path_14063" data-name="Path 14063" class="cls-3" d="M65.6,90.12c-1.16,2.27-.48,4.46,0,6.61a22.21,22.21,0,0,1,.94,6.73c1.75-4.77.36-9-1-13.34"/><path id="Path_14064" data-name="Path 14064" class="cls-3" d="M65.68,89.94l-.12.08,0,.1Z"/><path id="Path_14065" data-name="Path 14065" class="cls-3" d="M66.57,103.46h0l0,.18h0l0-.06Z"/><path id="Path_14081" data-name="Path 14081" class="cls-3" d="M68,79.15l.06.35.14-.09Z"/><path id="Path_14082" data-name="Path 14082" class="cls-3" d="M64.62,68.55l-.09.08h0l0,0,.17.15Z"/><path id="Path_14083" data-name="Path 14083" class="cls-3" d="M64.68,68.8c.92,3.54.86,7.55,3.3,10.35-.57-3.71-.33-7.82-3.3-10.35"/><path id="Path_14086" data-name="Path 14086" class="cls-3" d="M78.35,81.72l.24,7.33.62-.74a19.11,19.11,0,0,0-.86-6.59"/><path id="Path_14104" data-name="Path 14104" class="cls-3" d="M78.47,30.13l.78,8.42c0-2.95,1.3-6.06-.78-8.42"/><path id="Path_14106" data-name="Path 14106" class="cls-3" d="M79.23,44.78c.46,2.76-1.73,5.95.67,8.4-.57-2.75.95-5.83-.67-8.4"/><path id="Path_14122" data-name="Path 14122" class="cls-3" d="M42.56,45.69a8.45,8.45,0,0,0,.34,7,9.11,9.11,0,0,0-.34-7"/><path id="Path_14123" data-name="Path 14123" class="cls-3" d="M42.64,45.48l-.13.09.05.12Z"/><path id="Path_14199" data-name="Path 14199" class="cls-3" d="M85.76,33.53c-.19.26-.5.49-.55.77A1.54,1.54,0,0,0,85.82,36l.12,0c.25,0,.41-.36.35-1.16-.07-.2-.3-.79-.53-1.39"/><path id="Path_14200" data-name="Path 14200" class="cls-3" d="M86.38,39.36c-.16,0-.33.13-.45.45a2.33,2.33,0,0,0,.26,1.91c.1.19.21.29.31.3s.25-.1.38-.31a2.35,2.35,0,0,0-.08-2c-.12-.26-.27-.38-.41-.39"/><path id="Path_14201" data-name="Path 14201" class="cls-3" d="M64.33,64.74c-.57,1.55.32,2.52.29,3.67a3.44,3.44,0,0,0-.29-3.67"/><path id="Path_14202" data-name="Path 14202" class="cls-3" d="M64.62,68.41h0l-.09.22.09-.09Zm-.09.22h0"/><path id="Path_14204" data-name="Path 14204" class="cls-3" d="M79.9,53.19h0c-.24,1.37-1.71,2.56-.53,4.31.2-1.56.37-2.93.53-4.29h0"/><path id="Path_14257" data-name="Path 14257" class="cls-3" d="M454.23-49.34h-.06l-.32,0-.49,0c-5.48-.36-11-.37-16.51-.4l-1.5,0c-1.72,0-3.42,0-5.13-.08L424.69-50l-3.87-.09q-11.2-.21-22.43-.18h-6l-1.6,0-4.44.09c-2.33.05-4.65.07-7,.14-2.91.09-6,1-8.93.86h-.25a8.35,8.35,0,0,1-5.25-2.32l-.06-.06,0,0-.06,0-.06-.06-.07-.06a.62.62,0,0,0-.24-.08h-.11a3.47,3.47,0,0,0-.45.06l-.7.19-.37.11-.1,0h0l-1,.24c-4.26,1-8.54,1.71-12.83,2.42-1.45.24-2.9.48-4.36.75-2,.36-3.93.74-5.9,1.21-1.57.37-3.15.71-4.73,1l-3.13.62-4.52.84c-6.86,1.28-13.7,2.64-20.37,5.32-4.79,1.92-9.8,1.34-14.61,2.89l0-.09c-1.2.5-2.38.93-3.6,1.31a53.2,53.2,0,0,1-5.38,1.41l-3.15.64a58.77,58.77,0,0,0-6.8,1.7c-.91.31-1.81.56-2.72.85-1.7.54-3.42,1.06-5.12,1.55-1,.28-1.95.56-2.92.82-3.69,1-7.4,2-11.1,2.9-.65.16-1.28.33-1.93.48-2.83.72-5.66,1.43-8.49,2.17l-2.05.53c-4,1.07-8,2.19-12,3.45-4.57,1.45-9.26,2.38-13.65,5.23-5.45,3.56-10.71,7.63-16.68,10.08A181.81,181.81,0,0,0,169.9,9.66L167.82,11l-.87.55c-5.42,3.5-10.83,6.93-16.14,10.6-2.88,2-5.71,4.07-8.5,6.27a112.46,112.46,0,0,0-11.48,10.34c-2,2.06-4.05,4-6.17,5.83-1.53,1.33-3.08,2.63-4.64,3.93L117,51c-1.12.93-2.25,1.87-3.37,2.82-2,1.68-4,3.42-5.85,5.25l-.36.34c-1.17,1.15-2.32,2.32-3.44,3.56l-.31.34c-.58.63-1.17,1.24-1.75,1.85-3.61,3.71-7.43,7.15-10.35,11.74a12.25,12.25,0,0,1-4.12,4c-3.25,1.8-5.8,4.56-8.23,7.43l-.62.74c-.87,1-1.72,2.08-2.59,3.1-1.18,1.37-2.31,2.81-3.39,4.27-.53.71-1.06,1.43-1.57,2.16-1.31,1.88-2.56,3.79-3.76,5.75l-.55.88c-1.68,2.77-3.27,5.61-4.83,8.48-1.09,2-2.33,3.72-.44,6,1,1.22-.05,2.66-.76,3.89a25.12,25.12,0,0,0-1.23,2.36A12.36,12.36,0,0,0,58.38,130a4.62,4.62,0,0,0,1.31.35c1.74.13,2.73-1.27,3.52-3.06a64.85,64.85,0,0,1,3-6.64C75,106.08,85.85,93.76,97.47,82.41c9.93-9.69,20.61-18.27,30.41-28.19,12.31-12.49,25.33-23.84,40.51-31.13,1.54-.73,2.65-2.2,4-3.05,2.67-1.66,4.92-5.16,8.13-4.91a5.36,5.36,0,0,1,2.23.74.46.46,0,0,0,.2.05,1.49,1.49,0,0,0,1.2-.52c1.37-2.21,3.39-3,5.41-3.91,1.82-.85,3.46-2.25,5.23-3.28s4-3,5.39-2.92a1.38,1.38,0,0,1,.4.1,2.68,2.68,0,0,0,1,.29c2.1.17,2-3.22,3.92-3.4,7.6-.71,13.66-8,21.49-8.21,1,0,1.94-1,2.93-1.47A11.75,11.75,0,0,1,236-9a5.6,5.6,0,0,1,.59.07c-11.49,5.37-21.4,13.65-31.31,22.08s-19.79,16.72-29.14,26.94a5.27,5.27,0,0,0,.81.13,3,3,0,0,0,2.83-1.45c6-7.71,13.86-12.63,20.58-19.31C210.1,9.76,221.45,2.81,233-3.61a5.07,5.07,0,0,1,2.77-1A3,3,0,0,1,237.3-4l-8,7.5c-1.65,1.53-3.73,2.58-3,5.9.28,1.33-3.52,4.34-4.8,4.24a.86.86,0,0,1-.23-.06c0-1.22,1.92-1.47,1-3.43-4.7,3.89-8.75,8.58-13,13s-10.4,6.46-13.72,13a5.75,5.75,0,0,0,1.72.45,3.47,3.47,0,0,0,3-1.36c3.68-4.36,8.2-7.35,12.29-11a123.22,123.22,0,0,1,21.07-14.9,3,3,0,0,0,1.43-2.24,5.47,5.47,0,0,1-.9.26,8.94,8.94,0,0,1-1.69.44.82.82,0,0,1-.7-.55c-.66-1.48.49-2.33,1.49-2.69a21.22,21.22,0,0,0,7-4.49C247.66-6.61,256-11,264.4-15a7.17,7.17,0,0,1,3.73-1,5.33,5.33,0,0,1,1.76.46,5.42,5.42,0,0,0,1.76.48c2,.16,3.34-1.29,4-4.3.49-2.23,1.72-2.55,3-3,7-2.33,14.07-4.65,21.37-4.19a16.74,16.74,0,0,0,4.18-.25c4.38-.78,8.77-1.5,13.17-2a15.38,15.38,0,0,1,2.7-.37,2.32,2.32,0,0,1,1.66.87c-.38,1.43-1.34,1.3-2.17,1.58-5.69,1.95-11.53,3.49-16.41,7.93a7.81,7.81,0,0,0,3.91-.51c11.39-5.52,23-10.18,35.12-12.13,5.25-.86,10.57-2.55,15.72-2.24,5.42.3,10-1.51,14.71-4.11a29.1,29.1,0,0,1,9.58-3.64,5,5,0,0,1,1.1-.06c2.15.17.81,2.49.75,4.09,4.19-1.07,8.12-2.05,12.05-3.07a7.76,7.76,0,0,1,2.49-.29,4.77,4.77,0,0,1,2.91,1.32,3,3,0,0,0,1.75.87c1.27.11,2.22-1.11,2.22-3.2,0-1.18.4-1.71.82-1.67a.76.76,0,0,1,.55.4,2.64,2.64,0,0,0,2.05,1.43,8.34,8.34,0,0,0,2.66-.53c1.91-.52,3.9-.57,5.76-1.18a33.34,33.34,0,0,1,4.6-1.17,51.83,51.83,0,0,1,9-.78c1.53,0,3.06,0,4.58.07,3.8.13,7.58.36,11.38.29.48,0,1,0,1.46,0,.88.07,1.76.21,2.64.34,1.05.16,2.11.33,3.17.41a11.72,11.72,0,0,0,5-.56l.38-.11a.74.74,0,0,1,.36-.06.76.76,0,0,1,.41.15,1.53,1.53,0,0,1,.39,1.53c-5.69,3-11.83,3.83-17.93,4.73-1.38.2-2.75-.15-4.1.9A111.59,111.59,0,0,1,417.7-25c-1.35.64-2.56,1.39-1.79,4,2.22-1.43,4.4-1.95,6.46-3.43,3.06-2.19,6.52-5.09,9.9-4.82a2.73,2.73,0,0,1,.4.05c.32,0,.63.08.94.1,4.9.38,8.93-2.11,13.25-4a22.47,22.47,0,0,1,3-1.3,4.22,4.22,0,0,1,1.41-.16,3,3,0,0,1,2.54,2.1c-3.21,2.93-6.47,5.43-9.25,8.82a2.12,2.12,0,0,0,1,.36c.95.08,1.51-.86,2.09-1.37,4.38-3.88,9.45-6,14.29-8.77,2.76-1.58,5.84-.29,8.28-1.65,5.35-3,10.87-3.32,16.44-3.91,1.58-.17,3.41.07,4.68-.8a8.61,8.61,0,0,1,5.88-1.42c.61,0,1.23.14,1.84.23A230.44,230.44,0,0,1,531-34.28a4.65,4.65,0,0,1,3.23-1.57,5.66,5.66,0,0,1,.92,0,8.88,8.88,0,0,1,1.12.16c.41.07.8.16,1.2.26l2.79.66,1.71.41c.41.1.81.2,1.21.28Q549.56-32.52,556-31a10.61,10.61,0,0,1,6,3l-9.84,3.77c-2.73,1-4.75,3.15-6.55,6.85a2.53,2.53,0,0,0,.38.07,3.53,3.53,0,0,0,2.12-.85c3.26-2.2,6.56-4.2,10.27-3.92a9.6,9.6,0,0,1,1.84.33,2.93,2.93,0,0,0,.59.11,1.53,1.53,0,0,0,1.67-1.12A2.7,2.7,0,0,1,565-24.63c3.27-.17,6.55-.27,10.22-.4-3.72,3.37-3.81,2.92-7.3,4.07s-7,2.61-9.13,6.71c2.38-.72,4.56-2,6.84-2.91a11.65,11.65,0,0,1,5-1.26,5.3,5.3,0,0,1,2.5.88c-1.75,2.6-4.56,1.6-5.89,3.69-1.73,2.73-6.27,3-5.39,8A18.63,18.63,0,0,1,555-1.12c-10.57,3.68-17.29,11.51-19,24.41-.31,2.22-1.71,4.55-.1,7.29,1.85-3.13,2.1-6.19,2.62-9.17.43-2.42.56-5,1.86-7.1C545.18,6.27,551.09.23,559.94,0a2.78,2.78,0,0,0,2.33-1.35,7.9,7.9,0,0,1,7.84-4.08,11.08,11.08,0,0,1,1.14.14l.23,0A13.88,13.88,0,0,0,574.9-6c4.21-.83,8.43-2.17,12.63-2.27,1,0,2.64-.82,4-.72s2.12.9,2.26,3.57c0,.25.12.35.28.37.38,0,1.09-.47,1.53-.54,2.82-.48,5.62-1,8.44-1.44a11.2,11.2,0,0,1,2.65-.19A4.09,4.09,0,0,1,609.41-6c.34,2.15-2.24,2.32-2.39,4.21a2,2,0,0,0,.35,0c1.65.14,2.74-.9,4-1.5a20.66,20.66,0,0,1,10.9-2.42,16.6,16.6,0,0,1,2.62.41c.55.12.82.61.93,1.23,0,1.87-2.63,1.5-2.43,3.59a4.59,4.59,0,0,0,.81.29.32.32,0,0,0,.17,0,14.55,14.55,0,0,1,7.78-2,10.61,10.61,0,0,1,7,3.6,4.93,4.93,0,0,0,1.9,1l2.69,1,1.39-14.15-2.91-1-2.4-.83-2.76-1c-1.2-.41-2.41-.84-3.63-1.25q-12.92-4.45-25.87-8.84c-7.51-2.54-15-5-22.68-6.9l-.3-.07c-4-1-8.11-1.89-12.24-2.54l-3.62-.54-.45-.07c-5.67-.83-11.36-1.58-17-2.39-1.38-.2-2.75-.43-4.12-.63-.95-.15-1.91-.29-2.86-.45l-.65-.1c-.45-.07-.91-.15-1.36-.24-1.37-.25-2.73-.51-4.1-.79-4.18-.87-8.36-1.86-12.56-2.64-1.42-.27-2.84-.51-4.28-.71-2.71-.39-5.43-.73-8.14-1-17.06-2-34.24-2.94-51.2-5.73-1.64-.27-3.27-.46-4.91-.63-.47-.06-.92-.11-1.39-.14l-1.32-.12h-.06m-159,18.89a8,8,0,0,1,5.39-2.94c5-.74,10-2,15.06-2.49,5.86-.55,11.78-1,17.54-4.26,6.3-3.61,13.43-4,20.33-4.62,7.11-.59,14.23-1,21.35-1.48l.71,0h.16a31.62,31.62,0,0,1,4.35-.14,9,9,0,0,1,2.86.66l0,0c-8,.87-15.73,3.3-23.39,5.68-8.71,2.73-17.37,2.84-26.08,4-8.39,1.18-16.86,1.88-25.21,4.06a59.08,59.08,0,0,1-13.12,1.52M363.27-36c2.22-2.33,3.87-2.82,6.91-2.83C367.59-37,366-36.25,363.27-36M580.06-19a18.67,18.67,0,0,1-3.4-.62A9.3,9.3,0,0,1,583.45-22a12.84,12.84,0,0,1,4.72,1.41,16.11,16.11,0,0,1-8.11,1.56M324-39.15l-.46-.05a2.65,2.65,0,0,1,1-1.39,3.15,3.15,0,0,1,1.3-.41,20,20,0,0,0,2.3-.28c-1.67,2-2.87,2.24-4.16,2.14M609.22-15.42a4.54,4.54,0,0,1-2.51-.86c-.63-.75-.59-1.17-.19-1.13h.12c1.54.41,3.07.88,4.61,1.35l1.41.43-.33,0a15.42,15.42,0,0,1-3.11.16m-24.83,2.94c3.77-1.16,7.52-2.42,11.33-3.34A7.25,7.25,0,0,1,598-16a6.65,6.65,0,0,1,4.84,2.94,18.57,18.57,0,0,1-7.52.68c-.8-.07-1.59-.15-2.38-.24s-1.58-.16-2.37-.22a18.39,18.39,0,0,0-6.23.38M332.28-32.11a9.87,9.87,0,0,1-3.49-1.25,10.26,10.26,0,0,1,4.63-1,7,7,0,0,1,2.29.6,4.07,4.07,0,0,1-3.43,1.63M242.2-16.61a4.39,4.39,0,0,1-1.07-.2c13.54-8.86,28.53-10.2,43.13-13.68-1.22,2.1-3,2.72-4.77,3.29-6.68,2.2-13.38,4.32-20.07,6.47a13.81,13.81,0,0,1-5,1.1,4.21,4.21,0,0,1-.71-.12,5.26,5.26,0,0,0-.78-.12,9.41,9.41,0,0,0-4.32,1.09c-2.09.85-4.1,2.35-6.38,2.17M185.27,7.46a6.14,6.14,0,0,1-1.11-.19c.94-2,2-2.72,3.67-2.59a4.17,4.17,0,0,1,.59.08c-.62,2.14-1.61,2.82-3.15,2.7m-47,29.65c1.88-2.76,4.17-4.65,7.25-4.84-1.83,2.77-4.8,3.34-7.25,4.84M78.66,97.37c1-5.44,5.18-8.22,8.22-11.67s6-6.64,8.88-10.06a156.65,156.65,0,0,1,14.76-14.73A3.15,3.15,0,0,1,113,59.8l.23,0a5.74,5.74,0,0,1-2.19,3.87,345.67,345.67,0,0,0-26.24,28c-1.8,2.15-3.6,4.54-6.16,5.64m-1.73,2.28c-.13-.28-.45-.71-.37-.83a3.87,3.87,0,0,1,1.06-1.25.65.65,0,0,1,.36-.07l.5.08a3.07,3.07,0,0,1-.33,1,8.21,8.21,0,0,1-1.22,1.06"/><path id="Path_14260" data-name="Path 14260" class="cls-3" d="M235.19,6.94l-.05.2.15,0L235.2,7Z"/><path id="Path_14261" data-name="Path 14261" class="cls-3" d="M359.16,108.34a2.44,2.44,0,0,0-2,1.24c-2.77,3.83-3.46,12.32-1.18,17,1.79,3.7,4.32,5.79,7.6,6a10.79,10.79,0,0,0,3.44-.33,9,9,0,0,1,1-.27,3.14,3.14,0,0,1,.75,0c2,.15,1.24,2.79,1.8,4.21.73,1.84-.08,3.92-1.48,3.88-2-.07-4.18.53-6.21.37a5.93,5.93,0,0,1-4.91-3.19c-1.53-2.53-4.71-3.09-7.27-4.2a2.76,2.76,0,0,0-.9-.22,2,2,0,0,0-2.35,1.64,2.42,2.42,0,0,0,0,.54c.23,4.38-3.53,7.31-3.14,11.64a2.84,2.84,0,0,1-1.11,2c-2.52,1.62-3.5,5.52-6.71,6.08a1.81,1.81,0,0,0-1.33,1.76c0,1.54,1.68,2.81.42,4.55-.45.64-.8.88-1.07.85s-.62-.56-.9-1.11-.56-1.09-1-1.13a.91.91,0,0,0-.55.16c-1.07.61-2.26,1.64-3.72,1.53a3.53,3.53,0,0,1-1.63-.59c1.51-3.43-.36-6.3-1.53-9-.53-1.23-1.2-1.7-1.95-1.75a6.08,6.08,0,0,0-2.66.75,6.11,6.11,0,0,1-2.81.75l-.28,0c0-6.18-.12-12.06,6.43-14.31a3.81,3.81,0,0,0-2.58-1.94,2,2,0,0,0-1.46.51c-2.88,2.42-5.83,4.7-6.14,9.67a35.26,35.26,0,0,0,3.89,19.07,8.22,8.22,0,0,0,6.6,4.08,7.66,7.66,0,0,0,3.22-.42c1.21-.44,2.1-1.93,3.73-1.8l.35,0c-1.19,3.59.58,4.14,2.73,4.31l.48,0h.07c1.68.14,2.52,1.58,2.59,3.17.08,1.82-1.52,2.67-2.72,3.54a2.75,2.75,0,0,1-1.57.26l-.47,0-.59-.06c-.19,0-.41-.05-.6-.06a3.24,3.24,0,0,0-.45,0c-1.1,0-2.27.18-2.34,1.82a1.78,1.78,0,0,0,1.47,2h.06a1.48,1.48,0,0,0,.59-.08,6.71,6.71,0,0,1,2.55-.35c2,.17,3.67,1.38,5.51,2.93a6.93,6.93,0,0,0,3.71,1.35,7.21,7.21,0,0,0,2.69-.29,14.35,14.35,0,0,1,5.49-.53c1.14.09,2.28.26,3.42.43a84.6,84.6,0,0,1,11.38,2.4,16.35,16.35,0,0,0,3.06.85,2.19,2.19,0,0,0,2-.76,3.75,3.75,0,0,1,3.28-1.59,8.83,8.83,0,0,1,2.56.78,61.29,61.29,0,0,1,9,4.66c7.63,4.84,13.86,11.7,19.71,19a83.35,83.35,0,0,1,10.43,15.68c.55,1.15,1.92,2.45.66,3.78a1.23,1.23,0,0,1-1,.51c-.79-.06-1.3-1.33-1.89-1.92-.78-.79-1.39-1.79-2.12-2.65-4-4.7-7.17-10.31-11.82-14.26s-9.18-7.81-13.86-11.57c-10.27-8.22-22.25-11.41-34.58-12.45h-.19c-1.59-.13-3.18-.13-4.79-.14s-3.19,0-4.78-.13a21.41,21.41,0,0,1-5.32-1,6.26,6.26,0,0,0-1.6-.34,3.6,3.6,0,0,0-4,2.5c-1,2.8-2.79,6.27.53,8.8.05.05.06.06,0,.06h-.11c-.12,0-.24,0,.07.54a29,29,0,0,1-8.57.48,70.51,70.51,0,0,1-7.5-1.07c2.82-3,5.7-2.85,8.11-4.13a7.37,7.37,0,0,0,4.17-5.78c.28-1.42.86-3.09-.71-3.68a2.12,2.12,0,0,0-.51-.13c-1.12-.08-1.67,1.15-2.2,2.41-1.64,4-2.33,5.15-4.75,5a17,17,0,0,1-2-.33,6.17,6.17,0,0,0-.86-.14c-1.81-.14-2.43.86-2.73,3-.34,2.61-1.48,3.91-3.86,4.28-1.63.24-5.14-.37-2.76,4.08.37.71,0,1.16-.59,1.47a5.27,5.27,0,0,1-1,.4c-.21.08-.41.18-.62.25-4.33,1.63-8.11,4.7-12.2,6.39a2.24,2.24,0,0,0,.68,1.68c.38.38.76.65.77,1.14,0,1.21-1.09,1.49-1.89,1.81-1.25.49-2.5.94-3.76,1.34-.28.09-.57.2-.85.28a9.18,9.18,0,0,0-5.51,4,2,2,0,0,0,1.15.77h.11a1.48,1.48,0,0,0,.94-.27c4.76-3,10.24-3.88,14.73-7.64a8.55,8.55,0,0,1,4.53-1.89c9.52-1.13,19-2.84,28.59-2.53.41,0,.81,0,1.21.07,1.1.09,2.18.22,3.27.36s2.17.28,3.26.37c.41,0,.8.05,1.2.06.78,0,1.54.07,2.31.14,1.49.11,3,.29,4.43.52,1.77.27,3.52.65,5.26,1.08,7.68,1.91,15,5.15,22.22,8.74a17.41,17.41,0,0,1,4.27,3.37q4.86,5,9.71,10c.42.43.83.88,1.24,1.32,1.23,1.31,2.5,2.6,3.72,3.93.69.77,1.39,1.54,2.08,2.33q1.73,2,3.35,4a62.9,62.9,0,0,1,3.86,5.44c.35.56.69,1.13,1,1.7a43.12,43.12,0,0,1,3.9,8.95c.12.37.22.74.32,1.12.23.84.44,1.69.63,2.58.39,1.91.79,3.83,1.19,5.73L411,275c.95,4.65,1.85,9.31,2.57,14l0,.16,10.81.85,0-.17c-.3-2.2-.31-4.46-.46-6.69s-.32-4.33-.55-7.29c2.28,4.49,2.58,6.75,2.45,14.25l4.54.35c-1.74-1.74-1.57-4-1.8-6.07a72.34,72.34,0,0,0-4.82-19.2c-.51-1.25-.87-2.47-1.58-2.52-.43,0-1,.4-1.85,1.59a1.36,1.36,0,0,1-1.24.69,2.6,2.6,0,0,1-1.84-1.49c-1.39-2.54-2.92-5.08-3.48-8.06-2-10.69-8.33-18.12-14.39-25.32-2.83-3.35-6.79-5.87-9.92-9.26-.59-.63-1.34-1.53-2-1.58h-.12a6.32,6.32,0,0,1-.87,0,8.25,8.25,0,0,1-1.39-.24,9.52,9.52,0,0,1-4.36-2.94c-.84-.92-1.63-1.94-2.44-2.94a5.27,5.27,0,0,0-3.89-2.15h-.27l-.78-.05a7.07,7.07,0,0,1-4.63-1.81.42.42,0,0,0-.28-.14c-.43,0-.8.92-1,3.1-4.48-3.85-10.33-2.73-15.11-5.78,1.38-1.89,2.83-.11,3.81-1.49-.13-.29-.19-.72-.4-.88a7.87,7.87,0,0,0-4.17-1.66,6.54,6.54,0,0,0-2.41.24,14.49,14.49,0,0,1-5.24.46c-1.53-.15-3.05-.38-4.56-.68a40.91,40.91,0,0,0-4.66-.69l-.69-.05c1.52-2,3.14-1.63,4.66-1.7s2.81.21,3.28-2.15c.23-1.17,1.45-1.22,2.28-1.17,4.9.36,9.88-.65,14.78-.26a19.26,19.26,0,0,1,5.71,1.24,46.26,46.26,0,0,1,7.27,3.23c5.66,3.51,12.3,4.06,17.86,8.06,6.11,4.38,11,10.38,16.55,15.4a4.4,4.4,0,0,1,1.42,2.46c.58,5.85,4.24,9.56,6.83,14,2.15,3.63,4.72,6.91,5.93,11.76a21,21,0,0,0,5.12-4.17c1,1.54,3.08,3-.41,4.46-1.25.53-1.31,2.25-.6,3.73,3.72,7.76,5.4,16.38,6.78,25.1a15.58,15.58,0,0,1-.81,9l3.59.28a25.29,25.29,0,0,1,.1-3.48,13,13,0,0,1,1.28,3.58l2.82.22a118.46,118.46,0,0,0-2.92-16.39c-1.39-5.43-2.21-11.08-3.71-16.46-2.48-8.83-4.19-18.05-8.41-26-8.25-15.62-19.68-27.76-31.82-39A40.6,40.6,0,0,0,378,184.55c-.7-.26-2.82-.37-1.52-2,1.55-2,.63-2.25-.67-2.76-3.66-1.46-7.57-1.61-11.37-2.36-2.52-.49-5.26-.26-7.83-2.51a15.18,15.18,0,0,1,6.41-.82,29.28,29.28,0,0,1,3.95.64c6.21,1.36,12.63,1.42,18.71,3.45a3.42,3.42,0,0,0,.72.16,1,1,0,0,0,1.09-.74,1.61,1.61,0,0,0-.83-2.13,1.92,1.92,0,0,0-.31-.11,8.08,8.08,0,0,0-1.54-.39c-5.37-1-10.72-2.13-16.13-2.82-4.58-.6-8.75-2.43-13.1-3.81a33.21,33.21,0,0,1,11.28-1.6,16.66,16.66,0,0,1,5.47,1.36,6.6,6.6,0,0,0,1.56.5.52.52,0,0,0,.43-.11,4.3,4.3,0,0,1,4-1.7,13.45,13.45,0,0,1,1.78.28,17.94,17.94,0,0,0,1.79.26l.25,0c-1.66-2.43-4-3.1-6.34-3.68-7.69-1.94-15.4-3.82-23.1-5.74a4.5,4.5,0,0,1-3.42-2.25,45.68,45.68,0,0,1,8.27-.11c12,.94,22.57,6.5,33.52,12.87a10.18,10.18,0,0,0-5.19-6.24,63,63,0,0,0-10.15-4.75,24,24,0,0,1-10-5.65c.69-.52,1-.92,1.25-.92,1.57,0,3.12.07,4.67.2,7.07.54,13.83,2.37,19.85,7,.67.52,1.42,1.37,2.1,1.43h.15a6.32,6.32,0,0,1,1.23,0c3.87.3,6.16,3.86,9.06,6.12,1.61,1.26,2.94,2.26,5.22,2.44h.22l.54,0a15.44,15.44,0,0,1,9.91,4.22c.43.43.76,1.38,1.5,1.43a1.49,1.49,0,0,0,1-.36c-2.62-3.55-5.51-6.55-9.26-7.58a19.11,19.11,0,0,1-9-5.72,40.09,40.09,0,0,0-9.62-7c-5.13-2.93-10.05-6.32-15.38-8.8-.76-.36-2.11-.47-1.69-2.54,11,1.85,19.19,10.48,29,15.14-5.71-6.36-12.87-10.39-19-16,11,4.27,19.82,12.41,28.46,20.94-2.26-6.66-6.76-10.93-11.31-15.22a6.15,6.15,0,0,1,.74,0c3.53.26,5.66,3.21,8.31,5.09,3,2.14,5.17,5.66,8.49,7.21,1.14-1.77-1.26-2.54-.29-4.06,3.38,1.62,5.35,5.09,8.16,7.35.91-1.59-.46-3.85,1.36-4s2.47-.59,1.91-2.81c-.28-1,.67-1.1,1.41-1.2h.33a4.37,4.37,0,0,1,1,.22,4.06,4.06,0,0,0,1,.24,2.29,2.29,0,0,0,1.28-.27,21.4,21.4,0,0,1-4.37-10,43.59,43.59,0,0,1,8.48,9.35c.51.7,1.33,1.7,1.94,1.75a.53.53,0,0,0,.5-.3c.55-.94,1.05-1.21,1.53-1.18a2.78,2.78,0,0,1,1.34.69,2.9,2.9,0,0,0,1.32.69,1.08,1.08,0,0,0,.83-.32c-.19-2.4-.38-4.75-.56-7a.9.9,0,0,1,.61-.18,1.8,1.8,0,0,1,1,.56,1.81,1.81,0,0,0,1,.56.9.9,0,0,0,.69-.25c-.78-3.85-4.71-4.45-6.18-8.14a4.71,4.71,0,0,1,1.35-.1c1.56.12,2.61,1.1,3.73,2,4.6,3.57,8.92,7.87,13.79,10.63,5.36,3,9.32,7.35,13.07,12.28.61.79,1.21,2.19,2,2.24a.67.67,0,0,0,.31,0,3.8,3.8,0,0,1,1.7-.33c2,.16,2.55,2.65,3.72,4.23.62.85.94,2.27,2.14,2.36a1.61,1.61,0,0,0,.58-.05c-.08-1.18-.17-2.29-.25-3.41h.15c.87.07,1.22.87,1.58,1.7a117.07,117.07,0,0,1,4.94,12.65c.7,2.24,1.19,4.82,3.69,7.15-.86-7.09-3.34-12.45-4.39-18.3,3,3.82,4.57,8.5,6.6,12.91s2.34,9.68,5.44,13.33c-.43-6.26-2.59-11.79-4.58-17.27a89.2,89.2,0,0,0-7.19-15.94c-2.84-4.66-6.18-9-8.66-15.22a10.8,10.8,0,0,1,4.69,3.73c5.68,8.3,11.37,16.61,14.24,27,.75,2.7,1.62,5.34,2.37,8,.39,1.37.88,2.54,2.26,2.64h.06q-1.51-5.74-3-11.49c-.92-3.47-2.34-6.81-.35-10.71.51-1-1.56-2.5-.44-4.27,1.77.73,1.56,3.47,3.88,3.65-1-8.67-6.7-14.08-10.31-21.84,3.86,2.42,5.51,6.29,8.19,8.7.76-.8.88-1.49.61-2a123.45,123.45,0,0,0-9.43-14.3,2,2,0,0,0-1.36-.85,1.07,1.07,0,0,0-1,.46c-1,1.33-1.81,1.77-2.54,1.71-1.32-.1-2.3-1.87-3.39-2.91s-2-3.12-3-3.2a1,1,0,0,0-.52.15,4.1,4.1,0,0,1-2.56.84c-1.93-.15-3.08-2.29-4.59-3.47-3.59-2.81-8.43-2.5-11.74-6a.4.4,0,0,0-.27-.11,1.76,1.76,0,0,0-1.19.41c-.69.71-.31,1.5.23,2s1.12.93,1.71,1.35,1.24,1,.95,1.89a1.31,1.31,0,0,1-1.41,1.07,2.4,2.4,0,0,1-.83-.24,16.45,16.45,0,0,0-5.73-1.92,7.6,7.6,0,0,0-5.31,1.65.48.48,0,0,1-.35.07,9.56,9.56,0,0,1-2-.91,10.31,10.31,0,0,0-2.59-.89c-1.13-.09-1.52.87-2.68,3.67-1.35-.86-2.69-1.68-3.13-4,2.74-2.32,6.43-3.8,7-8.58-1.23-1.31-4.4.24-3.68-3.69.3-1.62-.86-2-2.06-2.15l-.46,0c-4.23-.06-5.38,1.34-5.41,6.79,0,.69-.14,1.29-.69,1.42a2.09,2.09,0,0,1-.66.06,1.31,1.31,0,0,1-.8-.31,5.93,5.93,0,0,1-1.58-2.31c-.71-2.35-1.93-3.37-3.59-3.51a6.79,6.79,0,0,0-2.36.31C431,129.05,438,132.2,443,137.21c-2.74-.37-4.44-2.37-6.43-3.86-1.58-1.19-3-2.37-5-2.53a6.54,6.54,0,0,0-2.16.22,9.15,9.15,0,0,1-2.9.25,7.68,7.68,0,0,1-5-2.26c-1-1-2.05-2.26-3.2-2.35-.84-.06-1.75.48-2.77,2.13a1.25,1.25,0,0,1-1.28.56,12.62,12.62,0,0,1-2.24-.62,19.77,19.77,0,0,1-6.6-3.49c-.54-.41-1.29-1.18-1.82-1.22a.41.41,0,0,0-.41.21c-.91,1.36-1.75,1.78-2.53,1.71-1.13-.09-2.19-1.11-3.3-1.67a2.74,2.74,0,0,0-1-.3,1.38,1.38,0,0,0-1.41.83c-.9,1.67-2.27,1.83-3.67,2.24-1,.31-2.29.81-2,2.4s-.16,1.91-.84,1.86a3.46,3.46,0,0,1-.83-.2c-1.6-.56-3.4-.7-3.77-3.4-.46-3.24,1.8-2.41,3-3.19.81-.53,1.71-1.14,1.71-2.23a2.64,2.64,0,0,0-2-2.53,6.57,6.57,0,0,0-1.39-.27c-3.21-.25-5.78,2.08-5.36,6.19a6.91,6.91,0,0,1-2.08,6,2.24,2.24,0,0,1-1.84.75,2.87,2.87,0,0,1-1.14-.36,1.89,1.89,0,0,1-.56-2.6h0c.86-1.87,0-2.68-1.3-3.23-1.05-.46-1.23-1.17-.63-2.31s1.52-2.15.59-3.34a1.45,1.45,0,0,0-1-.64c-.76-.06-1.51.65-2.27,1.12a11.18,11.18,0,0,1-6.3,1.84c-2.41-.19-3.18-2.19-1.86-7.15a8.16,8.16,0,0,0-.54-5.92,2.34,2.34,0,0,0-1.78-1.52m45.24,31.36-11.23-7.8c.26,0,.5,0,.74,0,3.49.27,5.75,2,10.49,7.77m79,8.94c-.15,0-.28-.12-.4-.33l-.77-1.36a1.9,1.9,0,0,1,.72.3,8.43,8.43,0,0,1,.92,1.15.58.58,0,0,1-.47.24m-54.68,2.09-6-5.61c3.56.47,4.28,1.09,6,5.61m56.18,15.82c-1.25-5.07-5.27-7.93-7.53-13.84a60.57,60.57,0,0,1,7.41,10,4.29,4.29,0,0,1,.12,3.81m-116.45-18.2a46.22,46.22,0,0,1-7.59-1.15c-.85-.21-1.92-.35-1.84-1.6a1.6,1.6,0,0,1,1.64-1.55h.08l.27,0c5.1,1.28,10.6,1.11,15.15,4.57-2.58,0-5.16-.1-7.72-.31m120,21.74c-1.41-.76-1.53-3.27-3.42-3.43a4.93,4.93,0,0,1,.94,0c1.6.13,2.47,1.23,2.48,3.46m-144-8.47a1.5,1.5,0,0,1-1-.49,1.17,1.17,0,0,1-.1-1,1.6,1.6,0,0,1,1.42-.63,6.61,6.61,0,0,1,1.39.36c.15,0,.25.23.68.67-.51.45-.74.8-1,.88a3.84,3.84,0,0,1-1.34.21m.36,12.63a12.77,12.77,0,0,1-3.33-.81c3.28-2.09,5.66-1.38,8.58-1.58-1.76,1.95-3.39,2.53-5.25,2.39m6.13,6.34a12.24,12.24,0,0,1-5.57-2,23.19,23.19,0,0,1,5.2-.2,33.07,33.07,0,0,1,6,1.13,11.83,11.83,0,0,1-5.63,1m70,65.18a2.08,2.08,0,0,1-1.35-1.09,35,35,0,0,1-3.94-8.54c2.35,2.24,3.61,5.79,6.38,7.45,0,1.57-.49,2.23-1.09,2.18m4.83,2.13a19.5,19.5,0,0,1-3.65-4.3c.19-.67.47-1,.88-1a1.21,1.21,0,0,1,.64.34,7.55,7.55,0,0,1,2.13,5"/><path id="Path_14271" data-name="Path 14271" class="cls-3" d="M503.2,113c-2-.15-3.6,1.52-3.66,4.34-.07,3.53-1.26,6.76-1.52,10.18,2.11,1.75,3.45,4.33,5.06,6.59a160.06,160.06,0,0,1,22.49,43.81c1.67,5.13,5,9.15,6.75,14.34a75.18,75.18,0,0,0-3.45-15.62c-5.23-14-10.15-28.21-17.53-40.89-1.21-2.08-2.17-4-4.51-4.47s-3.45-2.42-3.88-5.25c.79-.49,1.56-1,2.36-1.45a7.58,7.58,0,0,0,4.09-6.81c0-2.67-2.67-2.91-4.16-4a4.06,4.06,0,0,0-2.05-.8"/><path id="Path_14273" data-name="Path 14273" class="cls-3" d="M393.93,87.24a1.28,1.28,0,0,0-.64.11,2.07,2.07,0,0,0-1.15,2.48c.82,4.13,1.14,8.45,3.41,12,1.95,3,3.94,4.6,6.38,4.79a10.22,10.22,0,0,0,5.11-1.21c1.66-.79,3.2-1.91,4.85-2.74a5.61,5.61,0,0,1,2.61-.83c1,.08,1.51,1.06,1.78,3.24.38,3.1,2.14,5,3.37,7.33a3,3,0,0,0,2.35,1.89,3.25,3.25,0,0,0,2.19-.78,23.79,23.79,0,0,0,7.93-10.21c-2.84-.15-3.68,2.3-5.06,3.69-.68.7-1.17,1.55-2.19,1.47a1.88,1.88,0,0,1-.47-.1c-6.25-1.94-7.21-4.92-3.76-12a12.86,12.86,0,0,0,.51-2.45c-4.15,2.22-8.6,0-12.11,3.91a2.15,2.15,0,0,1-1.82.78,4.09,4.09,0,0,1-1.65-.59c-4-2.3-8.59-3.71-10.34-9.28-.26-.77-.62-1.45-1.3-1.5"/><path id="Path_14275" data-name="Path 14275" class="cls-3" d="M241.06,92.67a14.3,14.3,0,0,0-4.47,6.13,56.88,56.88,0,0,1-3.61,7c-2.78,5.17-5.72,10.32-7.44,16-2.42,8.06-6.4,15.34-8.94,23.28-3,9.4-5.6,19-4.79,29a50.27,50.27,0,0,1-.76,12.84c-1.26,7.11-1.27,14.33-1.49,21.52-.07,2.48.61,4.57,3.68,5.62a21.27,21.27,0,0,1-.94-9c.92-7.54.13-15.19,2-22.69a13.73,13.73,0,0,0,.08-4.91c-1.53-11.9.75-23.27,4.78-34.42,1.81-5,4.17-9.72,6.25-14.57,5-11.59,9.37-23.49,15.77-34.24.14-.24-.06-.74-.16-1.57"/><path id="Path_14276" data-name="Path 14276" class="cls-3" d="M345.24,100.79a1,1,0,0,0-.17,0c-2.25,0-4.1,1.29-5.85,2.85-6,5.42-10.17,12-10.38,19.53-1.23,8.15-.42,11.68,3.17,16.66,1,1.32,1.95,2.26,3.2,2.36a3.86,3.86,0,0,0,2.28-.67c2.72-1.65,3.72-3.73,3.59-7s-2-3.74-4.24-4c-3.55-.47-4.16-1.45-3.14-5.44,1-3.78,2.22-7.49,3.28-11.24.66-2.34,1.77-4,3.9-4.8,1.35-.49,2.6-1.4,3.94-1.94s-1.29-2.91,1.19-3c.66,0,.95-1.18.67-2.06a1.61,1.61,0,0,0-1.44-1.23"/><path id="Path_14283" data-name="Path 14283" class="cls-3" d="M513.45,108.19a3.54,3.54,0,0,0-1.48.23c-.27,2.2-.59,4.62-.86,7-1.13,10.16,3.22,17,11.8,18.49l.85.12c2.68.2,4.41-1.09,5-3.78.46-2-2.23-7.46-3.92-7.84l-.18,0c-.67-.06-1.08.53-1.58,1.07-1.42,1.52-2.25,2.29-2.9,2.24s-1.17-1.07-1.91-3.13c-.94-2.64-1.66-5.36-.39-8.26,1.48-3.38.4-5-2.5-5.45-.59-.09-1-.63-2-.7"/><path id="Path_14285" data-name="Path 14285" class="cls-3" d="M486.7,105.44a9,9,0,0,0-1.16,0c-3.14.3-6.38,2.2-9.29,4-3.2,2-3,8.88-.08,11.08a2.53,2.53,0,0,0,1.29.55c.93.08,1.63-.72,2.16-1.88.79-1.7,1.79-2.29,3-2.2a5,5,0,0,1,1.51.41c.64.28,1.32.48,2.24.82a15.88,15.88,0,0,0,8.52-4.31,2.31,2.31,0,0,0,.33-3.25l0,0c-2.47-2.48-5.24-5-8.48-5.25"/><path id="Path_14286" data-name="Path 14286" class="cls-3" d="M253.42,86.38c-2.45.86-2.9,2.78-3.58,4.8a69,69,0,0,1-6.9,15.51c-3.11,4.82-6.38,9.85-7.07,16-.82,7.17-3.85,13.65-4.92,20.87-.89,6-1.74,12.17-3,18.19-.33,1.59-.67,3.57.73,4.44,1.24-.28,1.23-1,1.32-1.55,2-12.35,3.85-24.67,7.43-36.77,1.94-6.58,3.89-12.85,7.25-18.59,4.1-7,6.71-14.6,8.77-22.93"/><path id="Path_14287" data-name="Path 14287" class="cls-3" d="M374.55,95.36c-1.34-.1-1.84,1.54-2.43,2.57-3.92,6.57.52,16.11,8.78,17a5,5,0,0,0,.66.08c3.79.3,7.6-1.87,10.75-6.09.75-1,1.41-2,.68-3.3-1-1.71-2.13-3.27-4-3.45h-.05c-1.92-.15-2.75,1.45-3.36,3.33a11.3,11.3,0,0,1-1.05,2.19c-1.05,1.86-2.09,2.77-3.09,2.7s-1.69-.88-2.43-2.46c-1.31-2.78-2.83-5.58-2.52-9.12.13-1.51-.14-3-1.58-3.4a1.8,1.8,0,0,0-.32-.06"/><path id="Path_14290" data-name="Path 14290" class="cls-3" d="M104.52,100c-1.35.31-1.62,1.32-2,2.24-2.88,6.23-5.4,12.74-9.09,18.4a219.42,219.42,0,0,0-15.25,28.79c-1.84,4-3,8.44-5.92,11.8a7.33,7.33,0,0,0-1.31,2.69,2.17,2.17,0,0,0,.46,1.57.73.73,0,0,0,.49.27,1,1,0,0,0,.9-.53c2.18-3.78,5.26-6.87,6.47-11.4a21.75,21.75,0,0,1,2-5.76c4.84-7.83,8.14-16.76,13.44-24.26a12.78,12.78,0,0,0,2.63-5.41c.56-3.56,2.39-6.46,3.71-9.64,1.17-2.82,3.58-5.15,3.45-8.76"/><path id="Path_14294" data-name="Path 14294" class="cls-3" d="M578.18,105.59a1.13,1.13,0,0,0-.41,0,1.56,1.56,0,0,0-.92,1.93c.91,4.66,1,9.16-2.29,12.81.3.53.36.76.5.84a2.25,2.25,0,0,0,.91.43c3.12.49,3.74,1.26,2.79,4.23-.77,2.44-1.4,5.25-4.53,5.25a6.89,6.89,0,0,0-5.37,7.69c.43,2.06,1.09,4,3,4.43a3.42,3.42,0,0,0,.63.09c2.16.17,3.88-1.51,4.54-3.57,1.86-5.78,4.4-11.73,3.57-17.83-.54-4-.74-8-1.12-12a25.54,25.54,0,0,0-.31-3c-.14-.63-.42-1.33-1-1.37"/><path id="Path_14295" data-name="Path 14295" class="cls-3" d="M429.2-19.9c-10.64-.82-36.64,25-39.78,38.77C395.63,12,400.3,3.45,407.23-2.56s12.84-13.25,22-17.34h0"/><path id="Path_14298" data-name="Path 14298" class="cls-3" d="M385.47,25.08a5.54,5.54,0,0,0-1.2,2.76c-3,9.77-2.82,19.89-3.32,29.87-.33,6.82,3.67,11.52,6.57,16.63l1.3-.78a38.23,38.23,0,0,0-2.45-5.7c-3.75-6-3.5-13.26-2.8-19.89s1.09-13.51,2.81-20.11c.27-1,.78-2.56-.92-2.77"/><path id="Path_14300" data-name="Path 14300" class="cls-3" d="M183,58c-5.1,5.64-11.95,7.52-17.53,12.18a88.1,88.1,0,0,0-15.07,15.5c6.33-5,12.74-9.81,19-14.92,4-3.25,8.63-5.09,12.27-9,1.09-1.17,1.84-2.12,1.35-3.74"/><path id="Path_14302" data-name="Path 14302" class="cls-3" d="M417.5,77.72c-2.42-.19-4.91.68-7.4,1.65a2.17,2.17,0,0,0-1.29,1.8,6.38,6.38,0,0,0,1.48,5.53,2.56,2.56,0,0,0,1.87,1.09,3.43,3.43,0,0,0,2-.52c3.07-1.66,6.24-3.11,9.25-6.25a8.34,8.34,0,0,0-5.89-3.3"/><path id="Path_14305" data-name="Path 14305" class="cls-3" d="M499.3,93.89a1.63,1.63,0,0,0-1.58,1.31,18.16,18.16,0,0,0-.47,1.9c-.2,2.55-.49,4.67.3,6.55.93,2.19.6,5.91,3.26,6.11H501c2.76.08,4.65-2.77,6.33-5.29a4.83,4.83,0,0,0,.5-1.11c.43-1.19.72-2.43-.27-3.34a1.22,1.22,0,0,0-.74-.35,2.5,2.5,0,0,0-1.65.84c-.71.65-1.25,2-2.18,1.88a1.53,1.53,0,0,1-.84-.4,4.29,4.29,0,0,1-1.63-4.16,14.09,14.09,0,0,0,.25-2.42,1.52,1.52,0,0,0-1.38-1.52h-.05"/><path id="Path_14307" data-name="Path 14307" class="cls-3" d="M469.34,112.07a1.6,1.6,0,0,0-1.07.36,5.15,5.15,0,0,1-3.47,1.15,5.47,5.47,0,0,1-2.88-1.2,4.27,4.27,0,0,0-2-1,1.7,1.7,0,0,0-1.67,1.12c-1.18,2.17-3.14,4.23-1.9,7.24.55,1.34,1.26,2.11,2.25,2.18a3.14,3.14,0,0,0,1.51-.32,30.92,30.92,0,0,0,10.7-8.48,2,2,0,0,0-1.45-1.06"/><path id="Path_14308" data-name="Path 14308" class="cls-3" d="M601.87,102.9A5,5,0,0,0,598,105c-1.39,1.71-3.68,3-2.76,6.06.7,2.3,3.11,4.77,4.84,4.9a1.75,1.75,0,0,0,.51,0c2.38-.56,2.42-3.25,3.3-5.16a13.32,13.32,0,0,0,.5-2c.13-2,.31-4.65-1.64-5.6a2.44,2.44,0,0,0-.88-.23"/><path id="Path_14310" data-name="Path 14310" class="cls-3" d="M357.45,85c-1.46-.11-5.5,3.28-6.26,5.28-1.1,2.88-.6,6.4,1.2,7.85a3.53,3.53,0,0,0,2,.84,4.87,4.87,0,0,0,3.43-1.45c.41-.35.84-1.13.15-1.42-2.77-1.2-.87-2.75-.09-4.16a8.13,8.13,0,0,0,1.1-4.72c-.08-1.06-.43-2-1.44-2.22h-.06"/><path id="Path_14312" data-name="Path 14312" class="cls-3" d="M395.16,27.79h0"/><path id="Path_14313" data-name="Path 14313" class="cls-3" d="M412.6,3.49a.93.93,0,0,0-.76.35c-5,5.64-10.52,10.82-14.2,17.93-1,1.92-.41,4.65-2.47,6a2.84,2.84,0,0,0,.91.23c1.62.12,2.34-1.54,3.1-3.13a35.61,35.61,0,0,1,6-8.84,51.19,51.19,0,0,0,8.27-12.12,1.49,1.49,0,0,0-.84-.44"/><path id="Path_14315" data-name="Path 14315" class="cls-3" d="M557.24,111.17a6.67,6.67,0,0,0-6.41,5.11c-.35,2.41,2.38,5.79,4.8,6h.07c2.32.12,5.41-3.28,5.84-6.4.39-2.86-.91-4.3-4.17-4.67h-.13m.1,7-.28,0a1.72,1.72,0,0,1-1.21-2.1s0-.09,0-.13c.22-1,.82-1.64,1.67-1.58l.23,0a1.62,1.62,0,0,1,1.19,2s0,.06,0,.09c-.27,1.13-.81,1.82-1.62,1.76"/><path id="Path_14316" data-name="Path 14316" class="cls-3" d="M264,29.75a1.45,1.45,0,0,0-1.19.51c-3.93,4-8.41,7.24-11.66,12-1.9,2.77-4,5.3-6,7.93-1.78,2.33-4.34,4.2-4.59,7.83,8.22-9.22,15.25-19.79,25.24-27.23a3.18,3.18,0,0,0-1.8-1"/><path id="Path_14319" data-name="Path 14319" class="cls-3" d="M378.87,15c-7.69,8-11.48,18.08-14.76,28.47,1.62-.22,2.14-1.85,2.81-3.21,3.36-6.86,6.53-13.85,11-19.95,1-1.33,2-2.86,1-5.31"/><path id="Path_14320" data-name="Path 14320" class="cls-3" d="M364.11,43.5l-.14,0,.09.13Z"/><path id="Path_14321" data-name="Path 14321" class="cls-3" d="M610.75,83.05c-1-.08-1.89,1-2.76,3.24-.59,1.49-.71,3-2.17,4.07-1.8,1.29-.74,3,.1,4.18a2.4,2.4,0,0,0,1.73,1.14,2.75,2.75,0,0,0,2-.88c1.88-1.74,2.31-5.33,5.33-5.67.14,0,.26-.69.4-1,0-1.52-1.36-1.68-2-2.62-1-1.54-1.88-2.35-2.69-2.41"/><path id="Path_14322" data-name="Path 14322" class="cls-3" d="M462.24,93.56c-2.06-.16-2.39,1.92-3.24,3.55-.47.89-1.11,1.66-1.53,2.57-.88,2,0,6,1.56,7a3.2,3.2,0,0,0,1.55.53,4.79,4.79,0,0,0,4.41-2.8,20.66,20.66,0,0,0,1.17-3.22,13.61,13.61,0,0,0,.17-1.43c-.12-2.7-.26-5.09-3.18-6a4,4,0,0,0-.91-.18M461.33,104a1.52,1.52,0,0,1-1.3-1.72,1,1,0,0,1,.07-.29c.31-1.64,1.08-3.26,2.6-3.61a1.1,1.1,0,0,1,.36,0c.81.06.86,1.18.77,2.26-.25,1.48-.4,3.31-2.32,3.39h-.18"/><path id="Path_14330" data-name="Path 14330" class="cls-3" d="M454.5,38.26a3.42,3.42,0,0,0-2.79,1.49,1.93,1.93,0,0,0,0,2.72,1.71,1.71,0,0,0,.44.32c2.11,1.38,1.65,2.68-.1,4.09-.59.46-1.43.86-1.65,1.49-.62,1.89-.48,3.84,1.18,4.75a1.81,1.81,0,0,0,.68.22c1,.07,1.78-1,2.34-2.07a11.93,11.93,0,0,0,1.1-5.39c.12-1.64.29-3.29.36-4.93,0-1.29-.2-2.54-1.52-2.68h-.07"/><path id="Path_14331" data-name="Path 14331" class="cls-3" d="M428.57-3c-6.91,2.09-11.4,10.58-10.22,19.46,1.6-3.23,2.08-6.94,4-10.13s4.94-5.24,6.24-9.33"/><path id="Path_14332" data-name="Path 14332" class="cls-3" d="M597.49,74.67a4.1,4.1,0,0,0-4.12,4.07,3.67,3.67,0,0,0,0,.46c.09,2,.06,4.7,2.34,5.36l.19,0c1.77.15,4.79-4.25,4.86-7.1.06-2-1.16-2.64-3.16-2.8h-.13"/><path id="Path_14336" data-name="Path 14336" class="cls-3" d="M448.36,95.3c-.9-.07-1.51,1-2.22,1.78s-1.77,1.38-2.51,2.24a3.92,3.92,0,0,0,.1,5.38,2.3,2.3,0,0,0,1.48.8,3.1,3.1,0,0,0,2.61-1.7,33.84,33.84,0,0,0,2-4.07c.28-1.7.71-3.2-.59-4.11a1.63,1.63,0,0,0-.82-.32"/><path id="Path_14340" data-name="Path 14340" class="cls-3" d="M393.05,45.49c-1.07,3.49-.94,5.07,1.89,15.07a11.57,11.57,0,0,0,5.36,7.31c-3.53-7-4.74-14.92-7.25-22.38"/><path id="Path_14345" data-name="Path 14345" class="cls-3" d="M300.38,2.69c-5.51,2.1-11.27,3.91-16.51,8.85,6.56-1.21,11.29-5.9,16.51-8.85"/><path id="Path_14346" data-name="Path 14346" class="cls-3" d="M305.2.67a19,19,0,0,0-4.81,2c1.63-.63,3.25-1.26,4.81-2"/><path id="Path_14347" data-name="Path 14347" class="cls-3" d="M583.45.16c-5.07-.4-9.79,3.5-13.1,10.7,3.5,0,4.25-4.07,6.5-5.74,2.48-1.85,5.59-2.21,8.16-4.7a8.21,8.21,0,0,0-1.56-.27"/><path id="Path_14349" data-name="Path 14349" class="cls-3" d="M263.56,2.91l0,.19.13-.05Z"/><path id="Path_14350" data-name="Path 14350" class="cls-3" d="M263.52,3.1A32.47,32.47,0,0,0,247.3,15c5.49-2.48,10.23-6.49,15.17-10.06a2.42,2.42,0,0,0,1-1.83"/><path id="Path_14351" data-name="Path 14351" class="cls-3" d="M543.25,35.48c-3.94,2.55-6.57,9.38-5.4,13.51.14.5.65,1.13,1,1.16h0a1.6,1.6,0,0,0,1.5-1.44c.94-4.32,1.86-8.65,2.85-13.23"/><path id="Path_14353" data-name="Path 14353" class="cls-3" d="M258,96.7a2.86,2.86,0,0,0-2.33,2.18c-1.16,6.49-4.92,11.54-7.39,17.3-.47,1.08-.9,2.35.68,3.34a31.5,31.5,0,0,0,3.85-7.91L258,96.7"/><path id="Path_14354" data-name="Path 14354" class="cls-3" d="M258.07,96.54l-.05.16.11,0Z"/><path id="Path_14360" data-name="Path 14360" class="cls-3" d="M370.11,81.27c-2.29-.1-2.39,2.9-3.39,2.82a.88.88,0,0,1-.41-.17,3.79,3.79,0,0,0-1.84-.84c-1.71-.14-1.68,2.66-2.43,4a2.29,2.29,0,0,0,.56,2.7,1.82,1.82,0,0,0,1.08.46,2.08,2.08,0,0,0,1.38-.41c2.74-1.89,4.14-4.78,5.05-8.61"/><path id="Path_14361" data-name="Path 14361" class="cls-3" d="M211.86,36.09c-4.41,3.49-7.52,8.58-11.67,12.34-.7.63-.29,1.77.47,2.41.5-.08,1.13,0,1.38-.35,3.45-4.63,6.07-10,9.82-14.4"/><path id="Path_14362" data-name="Path 14362" class="cls-3" d="M200.66,50.84h-.12l.24.09Z"/><path id="Path_14365" data-name="Path 14365" class="cls-3" d="M465.34,69.68A7.56,7.56,0,0,0,463,75.79c.07,1.52.77,2.75,2.14,3l.27,0c1.51.12,2.44-1.25,3.16-2.55,1-1.75.23-2.63-1.32-2.91-1.79-.31-.22-2.73-1.91-3.7"/><path id="Path_14366" data-name="Path 14366" class="cls-3" d="M141.33,50.22l-.06,0,.13.05Z"/><path id="Path_14367" data-name="Path 14367" class="cls-3" d="M140,49.9a4.78,4.78,0,0,0-3.5,1.6c-3.9,3.66-7.81,7.32-11.63,11.1-.63.62-2,1.32-.86,3.22,5.64-5.4,10.8-11.52,17.25-15.56A3.14,3.14,0,0,0,140,49.9"/><path id="Path_14371" data-name="Path 14371" class="cls-3" d="M433.8,88.81a2.73,2.73,0,0,0-.57,0c-1.74.23-3.47.64-5.21.73-1.2.07-2.12.23-2.17,1.89a2.7,2.7,0,0,0,1.47,2.85,1.37,1.37,0,0,0,.4.09c1.82.14,6.35-2.32,7-4a2.7,2.7,0,0,0,.08-.57c-.09-.79-.48-1-1-1.07"/><path id="Path_14373" data-name="Path 14373" class="cls-3" d="M406.92,111l-4.18,1.07a2,2,0,0,0-1.61,2.31c0,.1.05.21.08.31a2.35,2.35,0,0,0,2.17,2.09h.12c1.43.11,2.39-1.54,3.79-1.61,1.12-.06,2.69.47,2.57-1.81-.09-1.63-1.23-2.24-2.94-2.37"/><path id="Path_14374" data-name="Path 14374" class="cls-3" d="M445.9,62.23a1.19,1.19,0,0,0-.56.1c-1.39.55-3.36,4-3.1,5.37a3.3,3.3,0,0,0,3.05,2.71,4,4,0,0,0,1.62-.21,2,2,0,0,0,1.14-1.2c.19-.82-.05-1-.41-1.07a6.11,6.11,0,0,0-.85.08,3.09,3.09,0,0,1-.61,0,1,1,0,0,1-1-.92v0c-.09-1,.73-1.31,1.43-1.47a1.37,1.37,0,0,0,1.2-1,1.64,1.64,0,0,0-.53-1.59,2.57,2.57,0,0,0-1.34-.77"/><path id="Path_14377" data-name="Path 14377" class="cls-3" d="M480.48,84.38c-.58,0-1.09.38-1.34,1.78-.33,1.94-.63,4.26,1.4,5.23a1.75,1.75,0,0,0,.51.14c1.41.11,3.15-1.79,3.59-4,.36-1.78-.16-2.36-1.11-2.43a6,6,0,0,0-1.41.13,3.37,3.37,0,0,0-1.64-.9"/><path id="Path_14381" data-name="Path 14381" class="cls-3" d="M258.15,96.34l-.09.18v0l.06.13Z"/><path id="Path_14382" data-name="Path 14382" class="cls-3" d="M265.71,76.63c-3.16,6.78-7.28,12.29-7.56,19.71,1.62-3.14,2.61-6.62,4.48-9.67,3.69-6,3.67-6.39,3.07-10"/><path id="Path_14385" data-name="Path 14385" class="cls-3" d="M474.55,90.6h-.24a2.32,2.32,0,0,0-2.66,1.92,2.16,2.16,0,0,0,0,.35c-.24,2.07,1.06,5.33,2.25,5.42a.29.29,0,0,0,.13,0c1.95-.25,1.8-2.16,2-4.1.23-1.42.83-3.4-1.41-3.58"/><path id="Path_14386" data-name="Path 14386" class="cls-3" d="M114,104.08c-2.79,3.47-5.31,7.11-5.18,12.14,2.92-3.48,4.32-7.67,5.18-12.14"/><path id="Path_14389" data-name="Path 14389" class="cls-3" d="M612.91,51.07a5,5,0,0,0-1.09,0c-1.43.2-2,1.65-2.22,3.14a2,2,0,0,0,.71,2.09,1.68,1.68,0,0,0,.79.29,3.34,3.34,0,0,0,2.13-1,9.3,9.3,0,0,0,2.47-4.11c-1.06-.12-2-.33-2.79-.39"/><path id="Path_14392" data-name="Path 14392" class="cls-3" d="M470.91,60c-1.78.11-2.77,1.64-3.82,3a2.32,2.32,0,0,0,.34,3.25,2.23,2.23,0,0,0,1.06.48,2,2,0,0,0,1.23-.34c1.89-1.11,2.26-3,2.09-5.18a1.25,1.25,0,0,0-.9-1.24"/><path id="Path_14394" data-name="Path 14394" class="cls-3" d="M452.74,78.11c-1.31-.1-1.75,1.67-1.95,3-.27,1.8.19,3.21,2.06,3.67a2.94,2.94,0,0,0,2.76-2.93,3.6,3.6,0,0,0-2.7-3.74l-.16,0"/><path id="Path_14395" data-name="Path 14395" class="cls-3" d="M126.34,71.13c-2.9,3-6,5.83-7.59,10.15,3.52-2.34,5.38-6.37,7.59-10.15"/><path id="Path_14397" data-name="Path 14397" class="cls-3" d="M566.21,93H566c-1.73.12-3.57.64-4.31,2.9a1.87,1.87,0,0,0,.9,2.5,1.78,1.78,0,0,0,.51.16l.41,0c1.83.14,2.94-1.14,3.49-3.33,0-.92.08-2.21-.83-2.28"/><path id="Path_14400" data-name="Path 14400" class="cls-3" d="M530.88,50.31c-1.62,2.84-.61,5.54-.57,8.13a1,1,0,0,0,1.05,1,1.37,1.37,0,0,0,.57-.06c.53-5.1.53-5.1-1.06-9"/><path id="Path_14405" data-name="Path 14405" class="cls-3" d="M567.54,14.64c-1.94.28-2.77,1.72-3.41,3.14s-2.21,3.4-.8,4.31a1.54,1.54,0,0,0,.74.29c1.13.09,1.32-2,1.6-3.13.37-1.58,2.33-2.12,1.87-4.61"/><path id="Path_14409" data-name="Path 14409" class="cls-3" d="M273.9-3.23c-4.06.24-7,3.07-10,6,3.63-1.28,7.41-2.18,10-6"/><path id="Path_14410" data-name="Path 14410" class="cls-3" d="M263.93,2.79l-.37.13.1.13Z"/><path id="Path_14411" data-name="Path 14411" class="cls-3" d="M541.46,58.54c1.57,2.32,1,5.27,3.27,7.6.57-6.48.57-6.48-3.27-7.6"/><path id="Path_14412" data-name="Path 14412" class="cls-3" d="M432.79,71.64a1.29,1.29,0,0,0-1.35,1.22,1.62,1.62,0,0,0,0,.22c0,1.77.68,3.07,2.62,3.22h0c.79-.35,2.1-.66,1.88-2.19-.26-1.78-1.7-2.31-3.14-2.47h0"/><path id="Path_14414" data-name="Path 14414" class="cls-3" d="M616.89,39.88a3.41,3.41,0,0,0-2.68,3.29c-.14,1.12.24,2.23,1.15,2.32h.07c1.79.14,2.18-1.6,2.45-3.22.18-1.05.08-2-1-2.39"/><path id="Path_14415" data-name="Path 14415" class="cls-3" d="M416,59.83a7.61,7.61,0,0,0-2.55.32c1.37,1.87,2.29,3.24,3.33,4.47a2.19,2.19,0,0,0,1.32.88,1.17,1.17,0,0,0,.95-.44c.82-.86.39-1.88,0-2.77A3.45,3.45,0,0,0,416,59.83"/><path id="Path_14420" data-name="Path 14420" class="cls-3" d="M561.47,35.39a1.56,1.56,0,0,0-.31,0c-1.06.18-1,1.46-1.19,2.37,0,1.62-.23,3.31,1.18,4.27a.61.61,0,0,0,.27.08.93.93,0,0,0,.68-.21c1.4-1.38.5-3,.39-4.46-.07-.83-.13-2-1-2.07"/><path id="Path_14425" data-name="Path 14425" class="cls-3" d="M626.63,46.08c-1,1.57-1.69,3.12-.13,4.7a2.13,2.13,0,0,0,1.25.64,1.12,1.12,0,0,0,1.1-.64c1-1.76-.5-2.88-1.07-4.2-.11-.26-.59-.27-1.15-.5"/><path id="Path_14430" data-name="Path 14430" class="cls-3" d="M411.51,45.25c-2,1.87-3.44,3.06-4.06,5.08a2.21,2.21,0,0,0,.3,1.64.78.78,0,0,0,.49.25.82.82,0,0,0,.82-.54c.71-1.79,2.49-3,2.46-6.43"/><path id="Path_14432" data-name="Path 14432" class="cls-3" d="M222.83,24.87c-3.47.93-3.47.93-4.39,4.55l4.39-4.55"/><path id="Path_14434" data-name="Path 14434" class="cls-3" d="M395.19,27.91c.38,1.62-.26,3.11-.62,4.65s-1.57,3.15,0,4.85c1.68-5.59,1.7-5.65.59-9.5"/><path id="Path_14435" data-name="Path 14435" class="cls-3" d="M395.15,27.79h0l0,.12,0-.11h0Z"/><path id="Path_14436" data-name="Path 14436" class="cls-3" d="M130.54,106.61a8.18,8.18,0,0,0-3.7,5.08,6.31,6.31,0,0,0,3.7-5.08"/><path id="Path_14437" data-name="Path 14437" class="cls-3" d="M466,16.66c-1-.09-1.33,1.35-1.56,2.39s-.34,2,.62,2.44c1.15.08,1.66-.75,1.91-1.73.31-1.19.43-2.74-.71-3.05a.8.8,0,0,0-.26-.05"/><path id="Path_14438" data-name="Path 14438" class="cls-3" d="M617.09,59.17a.61.61,0,0,0-.19,0c-1.49.11-1.28,2.12-1.77,3.27s-.13,1.61.65,1.82a3.11,3.11,0,0,0,.44.08c1.3.1,1.63-1.2,1.88-2.5s0-2.59-1-2.67"/><path id="Path_14440" data-name="Path 14440" class="cls-3" d="M629.9,91.25h-.06a1.64,1.64,0,0,0-1.4,1.84,1.6,1.6,0,0,0,0,.21c.13,1.13.33,2.45,1.56,2.55h0c1.18.06,1.24-1.19,1.28-2.13.07-1.2-.11-2.36-1.47-2.47"/><path id="Path_14443" data-name="Path 14443" class="cls-3" d="M472-2.77c-1.64.81-2.76,1.33-3.86,1.93a1.19,1.19,0,0,0-.71,1.42,1.33,1.33,0,0,0,1.13,1.07,1.48,1.48,0,0,0,.47,0c1.56-.43,3-1.11,3-4.37"/><path id="Path_14447" data-name="Path 14447" class="cls-3" d="M577.24,38.9c-1.16-.09-1.57,1.22-1.91,2.44a1.68,1.68,0,0,0,.64,2c1.32,0,1.7-1.17,2.18-2.26.35-.79.42-1.78-.31-2.08a2.11,2.11,0,0,0-.6-.15"/><path id="Path_14450" data-name="Path 14450" class="cls-3" d="M616.69,18.05a.67.67,0,0,0-.24,0c-1.22.38-1.89,1.72-2.37,3-.19.52.1,1.3.63,1.34h0c1.61.11,2.45-1,2.78-2.63-.06-.85-.27-1.72-.82-1.77"/><path id="Path_14451" data-name="Path 14451" class="cls-3" d="M107.07,83.48l-.08.14.16,0Z"/><path id="Path_14452" data-name="Path 14452" class="cls-3" d="M106.71,83.59c-2.77-.22-2.68,3.06-3.82,4.8a13.29,13.29,0,0,0,4.1-4.77l-.28,0"/><path id="Path_14453" data-name="Path 14453" class="cls-3" d="M584.22,80.75a.93.93,0,0,0-.33,0c-1,.17-1.19,1.37-.93,2.41s.39,2,1.67,2.28a2.68,2.68,0,0,0,.35-2.55c-.18-.75.16-2.1-.76-2.17"/><path id="Path_14454" data-name="Path 14454" class="cls-3" d="M589.4,16.44a2.68,2.68,0,0,0-.49,0,2.84,2.84,0,0,0-2.62,1.82,5.6,5.6,0,0,0,2,.63,2.71,2.71,0,0,0,2.53-1.38,1.63,1.63,0,0,0-1.4-1.09"/><path id="Path_14457" data-name="Path 14457" class="cls-3" d="M473.48,52.45h0c-.84-.06-1.27.67-1.33,1.57a1.27,1.27,0,0,0,1,1.46l.24,0a1.53,1.53,0,0,0,1.4-1.54,1.39,1.39,0,0,0-1.25-1.5h-.08"/><path id="Path_14458" data-name="Path 14458" class="cls-3" d="M153.26,41l-2.35,1.84A5,5,0,0,0,153.26,41"/><path id="Path_14461" data-name="Path 14461" class="cls-3" d="M359,64.32c-.67,0-1.23.41-1.31,1.3a1.39,1.39,0,0,0,1.14,1.61H359A1.41,1.41,0,0,0,360.48,66a1.57,1.57,0,0,0-1.29-1.69l-.2,0"/><path id="Path_14462" data-name="Path 14462" class="cls-3" d="M407.19,69c-.82.06-1.76.24-1.78,1.48,0,.88.81,1.15,1.5,1.2a1.33,1.33,0,0,0,1.54-1.12.19.19,0,0,0,0-.08c.12-.9-.48-1.35-1.27-1.48"/><path id="Path_14464" data-name="Path 14464" class="cls-3" d="M534.27,62.23c-.72-.06-.93,1-1,1.69-.11,1.08-.67,2.55.87,2.75h0c.73,0,1.07-.79,1.23-1.78s.28-2.42-1.07-2.66h-.07"/><path id="Path_14465" data-name="Path 14465" class="cls-3" d="M144.53,44.87c-2.13,1.33-3.91,2.22-3.17,5.19.56-1.92,3-2.19,3.17-5.19"/><path id="Path_14466" data-name="Path 14466" class="cls-3" d="M141.35,50.07h0l0,.11.09.13Z"/><path id="Path_14467" data-name="Path 14467" class="cls-3" d="M301.46,23.27c-.92.57-2.53,1.77-2.34,1.9a1.24,1.24,0,0,0,.63.25c.88.08,1.23-1.29,1.71-2.15"/><path id="Path_14468" data-name="Path 14468" class="cls-3" d="M533.15,40.34c-.39,0-.68.44-.81.94a1.4,1.4,0,0,0,.28,1.55l.17,0c.51,0,.83-.34.87-.91s0-1.35-.27-1.52a.43.43,0,0,0-.24-.08"/><path id="Path_14472" data-name="Path 14472" class="cls-3" d="M145.17,89.77h0a2.76,2.76,0,0,0-1.91,1.88c-.17.51-.07,1,.34,1a1,1,0,0,0,.37-.08,3.08,3.08,0,0,0,1.76-2.12c-.18-.24-.39-.7-.54-.71"/><path id="Path_14473" data-name="Path 14473" class="cls-3" d="M581.92,93.42a1.3,1.3,0,0,0-1.43,1.13v0a1.58,1.58,0,0,0,.86,2.06,1.13,1.13,0,0,0,.24.08l.15,0a1.07,1.07,0,0,0,1-.9c.27-1,.21-1.94-.66-2.4l-.17,0"/><path id="Path_14479" data-name="Path 14479" class="cls-3" d="M599.79,98.85h-.24a1.15,1.15,0,0,0-1.08,1.09c-.13.86-.06,1.65.72,1.94a1.59,1.59,0,0,0,.3.06c.72,0,.78-.9,1.13-1.55-.17-.58,0-1.49-.83-1.55"/><path id="Path_14480" data-name="Path 14480" class="cls-3" d="M107.16,83.31l-.1.16h0l.07.16Z"/><path id="Path_14481" data-name="Path 14481" class="cls-3" d="M109.76,79.77a3.81,3.81,0,0,0-2.6,3.54c.78-1.15,2.14-1.71,2.6-3.54"/><path id="Path_14482" data-name="Path 14482" class="cls-3" d="M165.21,29.46a.5.5,0,0,0-.27.05,3.54,3.54,0,0,0-.89.64c-.39.36-.39.66,0,.86a5,5,0,0,0,1.28-1c.23-.32.14-.59-.11-.6"/><path id="Path_14484" data-name="Path 14484" class="cls-3" d="M450.29,16.15a1.49,1.49,0,0,0-1.27.63,1.21,1.21,0,0,0,.5,1.63,1.52,1.52,0,0,0,.32.12,3.07,3.07,0,0,0,.42.07c.53,0,1-.15,1.26-.94a1.23,1.23,0,0,0-.92-1.47,1,1,0,0,0-.25,0h-.06"/><path id="Path_14485" data-name="Path 14485" class="cls-3" d="M457,11.16h0c-1,.12-1.51,1-1.85,2-.05.14.34.46.58.77a2.59,2.59,0,0,0,1.76-2,1,1,0,0,0-.48-.73"/><path id="Path_14488" data-name="Path 14488" class="cls-3" d="M237.29,5.94c-.37,0-.74.29-1.08.51s-.58.4-.86.6a1.82,1.82,0,0,0,.77.36h0a3,3,0,0,0,1.47-.3.62.62,0,0,0,.17-.86.52.52,0,0,0-.14-.16.68.68,0,0,0-.36-.15"/><path id="Path_14489" data-name="Path 14489" class="cls-3" d="M235.2,7l.09.13.06,0Z"/><path id="Path_14490" data-name="Path 14490" class="cls-3" d="M181.89,71.73a.6.6,0,0,0-.45.21,2.19,2.19,0,0,0-.53,1c-.09.39,0,.62.35.64a.82.82,0,0,0,.31,0,5.13,5.13,0,0,0,.61-1.4.32.32,0,0,0-.25-.39h0"/><path id="Path_14492" data-name="Path 14492" class="cls-3" d="M291.25,31.84a1.68,1.68,0,0,0-1.5,1.16,1.3,1.3,0,0,0,.12,1l.15,0c.68.06,1-.65,1.46-1.16.26-.4.25-.91-.11-1h-.12"/><path id="Path_14493" data-name="Path 14493" class="cls-3" d="M352.26,49.88a.85.85,0,0,0-.32,0,1.11,1.11,0,0,0-.67,1.41v0a6.57,6.57,0,0,0,.83,1.33l.56-1.52c0-.62,0-1.25-.41-1.28"/><path id="Path_14496" data-name="Path 14496" class="cls-3" d="M550,67.77a.72.72,0,0,0-.67.44,1.2,1.2,0,0,0,.34,1.49,1,1,0,0,0,.54.31c.21,0,.42-.1.62-.44a1.27,1.27,0,0,0-.3-1.51.93.93,0,0,0-.54-.29"/><path id="Path_14497" data-name="Path 14497" class="cls-3" d="M364,43.53l0,.27.06-.12h0Z"/><path id="Path_14498" data-name="Path 14498" class="cls-3" d="M364,43.8h0c-.48,1.11-1.74,2-.82,3.64A4.39,4.39,0,0,0,364,43.8"/><path id="Path_14500" data-name="Path 14500" class="cls-3" d="M600.58,68.27a.93.93,0,0,0-.33,0,1.23,1.23,0,0,0-.85,1.31c0,.71.24,1.38.83,1.43a1.11,1.11,0,0,0,.36,0c.37-.11.66-.78.94-1.16-.15-.82-.32-1.51-.95-1.57"/><path id="Path_14501" data-name="Path 14501" class="cls-3" d="M200.55,50.85l.13.15.11-.06Z"/><path id="Path_14502" data-name="Path 14502" class="cls-3" d="M200.68,51h0c-.74.48-1.45,1-1.05,2.2,0,.07.16.11.32.12a.82.82,0,0,0,.53-.1,1.38,1.38,0,0,0,.48-1.89,1.3,1.3,0,0,0-.28-.34"/><path id="Path_14503" data-name="Path 14503" class="cls-3" d="M581.55,21.71a.75.75,0,0,0-.15,0,5.37,5.37,0,0,0-.8,1.24.79.79,0,0,0,.34,1.05.72.72,0,0,0,.32.08h.12c.56,0,.82-.63.91-1.21s0-1.1-.74-1.16"/></g></g></g></g></g><g id="Check_out_the_new_OH-WAKE_magazine_created_by_Ocean_Heroes_for_Ocean_Heroes" data-name="Check out the new OH-WAKE magazine created by Ocean Heroes for Ocean Heroes" class="cls-4"><text class="cls-5" transform="translate(0 43.6)">Check out the new OH-WAKE magazine created</text><text class="cls-5" transform="translate(0 103.6)">by Ocean Heroes for Ocean Heroes</text></g></svg>