<svg id="Layer_1" data-name="Layer 1" xmlns="http://www.w3.org/2000/svg" viewBox="0 0 126.55 126.54"><defs><style>.cls-1{fill:#e1273a;}.cls-2,.cls-3,.cls-5{isolation:isolate;}.cls-3,.cls-5{font-size:16px;fill:#fff;font-family:DrukText-Medium, Druk Text;font-weight:500;}.cls-3{letter-spacing:-0.01em;}.cls-4{letter-spacing:0em;}.cls-6{letter-spacing:-0.01em;}</style></defs><g id="Group_135" data-name="Group 135"><g id="Group_114" data-name="Group 114"><path id="Path_9826" data-name="Path 9826" class="cls-1" d="M123.58,55.7l.44-.58a8.28,8.28,0,0,0-1.58-11.6,9.1,9.1,0,0,0-1.11-.71l-.71-.38A8.28,8.28,0,0,1,116.54,33h0a8.28,8.28,0,0,0-5.81-10.16,8,8,0,0,0-1.29-.25l-1.57-.17a8.26,8.26,0,0,1-7.31-7.11l-.1-.72a8.27,8.27,0,0,0-9.32-7.08,7.89,7.89,0,0,0-1.28.28L89.09,8A8.28,8.28,0,0,1,79.5,4.17h0A8.27,8.27,0,0,0,68.21,1.09a9,9,0,0,0-1.08.74l-1.23,1A8.29,8.29,0,0,1,55.7,3l-.58-.43a8.27,8.27,0,0,0-11.6,1.58,8.58,8.58,0,0,0-.71,1.1l-.38.71A8.28,8.28,0,0,1,33,10h0A8.27,8.27,0,0,0,22.8,15.82a8,8,0,0,0-.25,1.28l-.17,1.57A8.27,8.27,0,0,1,15.28,26l-.72.1a8.29,8.29,0,0,0-7.09,9.33,9.29,9.29,0,0,0,.28,1.27l.24.77A8.28,8.28,0,0,1,4.17,47h0a8.28,8.28,0,0,0-3.08,11.3,9,9,0,0,0,.74,1.08l1,1.23A8.29,8.29,0,0,1,3,70.85l-.43.57A8.29,8.29,0,0,0,4.11,83a7.87,7.87,0,0,0,1.1.7l.71.38A8.28,8.28,0,0,1,10,93.59h0a8.28,8.28,0,0,0,5.82,10.16,7.93,7.93,0,0,0,1.29.24l1.56.17A8.28,8.28,0,0,1,26,111.27l.1.72a8.27,8.27,0,0,0,9.32,7.08,8.13,8.13,0,0,0,1.28-.28l.77-.23A8.27,8.27,0,0,1,47,122.37h0a8.28,8.28,0,0,0,11.3,3.08,7.87,7.87,0,0,0,1.08-.73l1.23-1a8.27,8.27,0,0,1,10.2-.15l.58.44A8.28,8.28,0,0,0,83,122.44a9.82,9.82,0,0,0,.71-1.1l.38-.71a8.27,8.27,0,0,1,9.47-4.09h0a8.27,8.27,0,0,0,10.16-5.81,8,8,0,0,0,.25-1.28l.17-1.57a8.27,8.27,0,0,1,7.11-7.32l.71-.1a8.28,8.28,0,0,0,7.09-9.32,9.43,9.43,0,0,0-.28-1.28l-.24-.77a8.28,8.28,0,0,1,3.82-9.58h0a8.28,8.28,0,0,0,3.08-11.3,10,10,0,0,0-.74-1.09l-1-1.22A8.27,8.27,0,0,1,123.58,55.7Z"/></g><g id="Find_us_on_social_oceanheroeshq" data-name="Find us on social oceanheroeshq" class="cls-2"><text class="cls-3" transform="translate(10, 73.36) rotate(-12.24)">F<tspan class="cls-4" x="6.40" y="0"> ind us on social</tspan></text><text class="cls-5" transform="translate(13.27, 89.65) rotate(-12.24)">@oc<tspan class="cls-6" x="26.54" y="0"> e</tspan><tspan x="33.51" y="0"> anheroeshq</tspan></text></g></g></svg>