<svg id="Layer_1" data-name="Layer 1" xmlns="http://www.w3.org/2000/svg" viewBox="0 0 344.51 198.56"><defs><style>.cls-1{fill:#80ceea;stroke:#fff;stroke-miterlimit:10;stroke-width:3.5px;}.cls-2,.cls-3,.cls-5{isolation:isolate;}.cls-3,.cls-5{font-size:33px;fill:#fff;font-family:DrukText-Medium, Druk Text;font-weight:500;}.cls-3{letter-spacing:-0.01em;}.cls-4{letter-spacing:0em;}.cls-6{letter-spacing:0em;}</style></defs><g id="Group_180" data-name="Group 180"><path id="Path_9827" data-name="Path 9827" class="cls-1" d="M21.66,126.42c-.08,7-22.83,18.82-19.6,24.71,3.11,5.67,27.49-4,33.3.59,5.09,4-2.73,27.75,4.17,30.81,6.06,2.69,21.83-17.56,29.11-15.65,6.54,1.71,8.11,26.69,15.5,27.73,6.78.95,16.48-22.44,23.88-22.1,6.89.32,13.81,24.54,21.16,24.3,6.94-.22,12.27-24.8,19.55-25.53,6.94-.7,17.62,22.29,24.8,21.1,7.88-1.3,10.25-26.49,17.84-28.28,7.79-1.83,22.59,19.29,30,17,7.66-2.37,6-27.6,13.2-30.41,7.48-2.93,25.63,15.78,32.46,12.44,7.24-3.55,1-28.12,7.42-32,6.91-4.23,28.72,10.65,34.49,6.07,6.38-5.06-6.27-27.27-1.48-32.63,5.43-6.08,31.43.5,34.53-5.77,3.53-7.14-19.22-19.51-19.13-26.61s22.83-18.82,19.6-24.71c-3.11-5.67-27.49,4-33.29-.58-5.1-4,2.72-27.75-4.18-30.82-6.06-2.69-21.83,17.56-29.11,15.66C269.33,30,267.77,5,260.38,4c-6.79-1-16.48,22.43-23.88,22.09-6.9-.32-13.81-24.53-21.17-24.3-6.93.22-12.27,24.8-19.55,25.54C188.84,28,178.16,5,171,6.19c-7.88,1.3-10.25,26.49-17.84,28.27-7.78,1.84-22.59-19.29-30-17-7.65,2.37-6,27.61-13.2,30.41C102.47,50.81,84.33,32.1,77.5,35.44c-7.25,3.54-1,28.12-7.43,32-6.91,4.24-28.72-10.65-34.49-6.07C29.2,66.48,41.85,88.68,37.06,94c-5.43,6.09-31.43-.5-34.53,5.78C-1,107,21.75,119.32,21.66,126.42Z"/><g id="Find_us_on_social_oceanheroeshq" data-name="Find us on social oceanheroeshq" class="cls-2"><text class="cls-3" transform="translate(67.88 108.58) rotate(-12.24)">F<tspan class="cls-4" x="13.33" y="0"> ind us on social </tspan></text><text class="cls-5" transform="translate(69.46 146.1) rotate(-12.24)">@oc<tspan class="cls-6" x="54.75" y="0"> e</tspan><tspan x="69.13" y="0"> anheroeshq</tspan></text></g></g></svg>