<svg id="Layer_1" data-name="Layer 1" xmlns="http://www.w3.org/2000/svg" viewBox="0 0 199.46 199.46"><defs><style>.cls-1{fill:#e1273a;}.cls-2,.cls-3{isolation:isolate;}.cls-3{font-size:35px;fill:#fbfbfc;font-family:DrukText-Medium, Druk Text;font-weight:500;}.cls-4{letter-spacing:0em;}.cls-5{letter-spacing:-0.01em;}</style></defs><g id="Group_250" data-name="Group 250"><path id="Path_9826" data-name="Path 9826" class="cls-1" d="M194.78,87.79l.69-.91a13,13,0,0,0-4.23-19.4l-1.12-.6A13,13,0,0,1,183.69,52h0a13,13,0,0,0-9.16-16,14,14,0,0,0-2-.39L170,35.28A13.06,13.06,0,0,1,158.5,24.07l-.15-1.13a13.07,13.07,0,0,0-14.7-11.17,13.58,13.58,0,0,0-2,.44l-1.22.37a13.05,13.05,0,0,1-15.11-6h0a13.06,13.06,0,0,0-17.8-4.85,14.34,14.34,0,0,0-1.71,1.17l-1.93,1.56a13,13,0,0,1-16.08.22L86.88,4a13.05,13.05,0,0,0-18.29,2.5,11.57,11.57,0,0,0-1.11,1.73l-.6,1.12A13,13,0,0,1,52,15.76h0a13,13,0,0,0-16,9.17,13.85,13.85,0,0,0-.39,2l-.26,2.47A13.06,13.06,0,0,1,24.07,41l-1.13.16a13.06,13.06,0,0,0-11.17,14.7,13.86,13.86,0,0,0,.44,2L12.58,59a13,13,0,0,1-6,15.1h0A13.06,13.06,0,0,0,1.73,92a12.43,12.43,0,0,0,1.16,1.7l1.55,1.94a13,13,0,0,1,.23,16.08l-.69.91a13.05,13.05,0,0,0,2.49,18.28A13.22,13.22,0,0,0,8.21,132l1.12.6a13,13,0,0,1,6.43,14.93h0a13.06,13.06,0,0,0,9.17,16,12.74,12.74,0,0,0,2,.38l2.47.27A13,13,0,0,1,41,175.39l.15,1.13a13.05,13.05,0,0,0,14.7,11.16,12.65,12.65,0,0,0,2-.44l1.22-.37a13,13,0,0,1,15.1,6h0A13,13,0,0,0,92,197.73a12.43,12.43,0,0,0,1.7-1.16L95.59,195a13.06,13.06,0,0,1,16.08-.23l.91.69A13,13,0,0,0,130.86,193a13.8,13.8,0,0,0,1.12-1.73l.6-1.13a13,13,0,0,1,14.93-6.43h0a13,13,0,0,0,16-9.16,12.74,12.74,0,0,0,.38-2l.27-2.47a13.06,13.06,0,0,1,11.21-11.53l1.13-.15a13.05,13.05,0,0,0,11.16-14.7,12.65,12.65,0,0,0-.44-2l-.36-1.22a13.05,13.05,0,0,1,6-15.11h0a13,13,0,0,0,4.84-17.8,13.18,13.18,0,0,0-1.16-1.71L195,103.87A13,13,0,0,1,194.78,87.79Z"/><g id="ohwake.org" class="cls-2"><text class="cls-3" transform="translate(25.7 126.34) rotate(-12.01)">o<tspan class="cls-4" x="16.06" y="0">hw</tspan><tspan x="54.45" y="0">a</tspan><tspan class="cls-5" x="70.06" y="0">k</tspan><tspan x="85.46" y="0">e.org</tspan></text></g></g></svg>